<svg xmlns="http://www.w3.org/2000/svg" width="1494.992431640625" height="1209.881591796875" viewBox="-852.8150024414062 -589.7349853515625 1494.992431640625 1209.881591796875"><title>Neo4j Graph Visualization</title><desc>Created using Neo4j (http://www.neo4j.com/)</desc><g class="layer relationships"><g class="relationship" transform="translate(-582.8985902451193 301.70607474097494) rotate(282.8737292507797)"><path class="outline" fill="#A5ABB6" stroke="none" d="M 5.987513214418485,-24.277555179777966 L 6.953439040707552,-24.018736134675446 A 329.29883602954214 329.29883602954214 0 0 1 307.0956754485699,-267.5999360534944 L 307.04120816257443,-268.5984516090849 A 330.29883602954214 330.29883602954214 0 0 0 5.987513214418485,-24.277555179777966 Z M 336.1836880315427,-268.9004437086227 L 336.1499246709538,-267.9010138534144 A 329.29883602954214 329.29883602954214 0 0 1 641.2754382773056,-30.59196645669975 L 638.3943735936739,-29.755625444474468 L 643.7070780864365,-24.0088723635966 L 645.1168578554812,-31.707087806333462 L 642.2357931718494,-30.87074679410818 A 330.29883602954214 330.29883602954214 0 0 0 336.1836880315427,-268.9004437086227"/><text text-anchor="middle" pointer-events="none" font-size="8px" fill="#000000" x="321.6142967020453" y="-265.57105579465315" font-family="sans-serif">similar</text></g><g class="relationship" transform="translate(-582.8985902451193 301.70607474097494) rotate(309.9187604466017)"><path class="outline" fill="#A5ABB6" stroke="none" d="M 6.953439040707552 24.018736134675446 L 17.306200844808384 62.65576918623819 A 17.916697508022974 17.916697508022974 0 1 1 -17.306200844808384 62.65576918623819 L -8.765172356425198 30.780216918698923 L -4.901469051268926 31.815493099109005 L -6.4704761275630185 24.148145657226706 L -11.662949835292403 30.00375978339136 L -7.79924653013613 31.039035963801442 L -16.340275018519314 62.91458823134071 A 16.916697508022974 16.916697508022974 0 1 0 16.340275018519314 62.91458823134071 L 5.987513214418485 24.277555179777966 Z"/><text text-anchor="middle" pointer-events="none" font-size="8px" fill="#000000" x="0" y="94.20964923467838" font-family="sans-serif">similar</text></g><g class="relationship" transform="translate(-437.9257946900275 -332.614750075934) rotate(408.7251154750523)"><path class="outline" fill="#A5ABB6" stroke="none" d="M 6.953439040707552 24.018736134675446 L 17.306200844808384 62.65576918623819 A 17.916697508022974 17.916697508022974 0 1 1 -17.306200844808384 62.65576918623819 L -8.765172356425198 30.780216918698923 L -4.901469051268926 31.815493099109005 L -6.4704761275630185 24.148145657226706 L -11.662949835292403 30.00375978339136 L -7.79924653013613 31.039035963801442 L -16.340275018519314 62.91458823134071 A 16.916697508022974 16.916697508022974 0 1 0 16.340275018519314 62.91458823134071 L 5.987513214418485 24.277555179777966 Z"/><text text-anchor="middle" pointer-events="none" font-size="8px" fill="#000000" x="0" y="94.20964923467838" font-family="sans-serif">similar</text></g><g class="relationship" transform="translate(-437.9257946900275 -332.614750075934) rotate(462.8737292507797)"><path class="outline" fill="#A5ABB6" stroke="none" d="M 13.473521019338785,21.06452542407343 L 14.30499063164133,20.50895519105383 A 373.7078229912992 373.7078229912992 0 0 0 307.1803852767656,186.16923115437888 L 307.13261719979846,187.1680896082265 A 374.7078229912992 374.7078229912992 0 0 1 13.473521019338785,21.06452542407343 Z M 336.27238625356046,187.42719554505626 L 336.24238768871817,186.42764560327876 A 373.7078229912992 373.7078229912992 0 0 0 632.0172876395226,26.001549285139273 L 629.5529110911245,24.29074589850881 L 636.4198916330599,20.536471236649156 L 635.3031230373865,28.282620467313222 L 632.8387464889885,26.57181708068276 A 374.7078229912992 374.7078229912992 0 0 1 336.27238625356046,187.42719554505626"/><text text-anchor="middle" pointer-events="none" font-size="8px" fill="#000000" x="321.70442768978535" y="190.08104344812025" transform="rotate(180 321.70442768978535 187.08104344812025)" font-family="sans-serif">similar</text></g><g class="relationship" transform="translate(-582.8985902451193 301.70607474097494) rotate(337.52171175242086)"><path class="outline" fill="#A5ABB6" stroke="none" d="M 21.40063509461097,-12.933012701892217 L 21.90063509461097,-12.06698729810778 A 1161.8730543965073 1161.8730543965073 0 0 1 568.0399136922501,-167.20726763759558 L 568.0099644232926,-168.20681905762808 A 1162.8730543965073 1162.8730543965073 0 0 0 21.40063509461097,-12.933012701892217 Z M 630.9509576132988,-168.3885692522449 L 630.9267814616422,-167.38886153811495 A 1161.8730543965073 1161.8730543965073 0 0 1 1177.9529197468105,-15.405236618230605 L 1176.4679491935876,-12.798540921364303 L 1184.282704798369,-12.37475461018855 L 1179.9328804844408,-18.880830880719007 L 1178.447909931218,-16.274135183852707 A 1162.8730543965073 1162.8730543965073 0 0 0 630.9509576132988,-168.3885692522449"/><text text-anchor="middle" pointer-events="none" font-size="8px" fill="#000000" x="599.4806749328611" y="-165.22361448073957" font-family="sans-serif">same_name_as</text></g><g class="relationship" transform="translate(-582.8985902451193 301.70607474097494) rotate(351.32776668576616)"><path class="outline" fill="#A5ABB6" stroke="none" d="M 5.987513214418485,24.277555179777966 L 6.953439040707552,24.018736134675446 A 390.4755362949678 390.4755362949678 0 0 0 349.32321627779424,311.87789472158147 L 349.23409256947053,312.8739152859347 A 391.4755362949678 391.4755362949678 0 0 1 5.987513214418485,24.277555179777966 Z M 412.16604404890404,313.42611498620795 L 412.0944119867011,312.42868386193686 A 390.4755362949678 390.4755362949678 0 0 0 759.4627548673426,30.62166849085389 L 756.5790486484115,29.79448142440631 L 761.8734757255421,24.03088515775594 L 763.3076964925841,31.72458457945066 L 760.423990273653,30.89739751300308 A 391.4755362949678 391.4755362949678 0 0 1 412.16604404890404,313.42611498620795"/><text text-anchor="middle" pointer-events="none" font-size="8px" fill="#000000" x="380.69334084608045" y="316.9167167145217" font-family="sans-serif">same_name_as</text></g><g class="relationship" transform="translate(-582.8985902451193 301.70607474097494) rotate(282.8737292507797)"><path class="outline" fill="#A5ABB6" stroke="none" d="M 19.529452792776517,-15.615712395363635 L 20.13821422178524,-14.822359055072399 A 500.84230139769534 500.84230139769534 0 0 1 290.3775890832204,-117.1194223064129 L 290.30839744315983,-118.11702569300786 A 501.84230139769534 501.84230139769534 0 0 0 19.529452792776517,-15.615712395363635 Z M 353.25036814237194,-118.52574898165534 L 353.19413797059264,-117.5273311493919 A 500.84230139769534 500.84230139769534 0 0 1 624.7392302944379,-18.74842798591308 L 622.9440092829774,-16.34485116791643 L 630.6467797050068,-14.960175095504793 L 627.1328583097185,-21.95319707657528 L 625.337637298258,-19.54962025857863 A 501.84230139769534 501.84230139769534 0 0 0 353.25036814237194,-118.52574898165534"/><text text-anchor="middle" pointer-events="none" font-size="8px" fill="#000000" x="321.7762152507728" y="-115.80917783240488" font-family="sans-serif">same_name_as</text></g><g class="relationship" transform="translate(-437.9257946900275 -332.614750075934) rotate(444.5765016993249)"><path class="outline" fill="#A5ABB6" stroke="none" d="M 6.953439040707552 24.018736134675446 L 17.306200844808384 62.65576918623819 A 17.916697508022974 17.916697508022974 0 1 1 -17.306200844808384 62.65576918623819 L -8.765172356425198 30.780216918698923 L -4.901469051268926 31.815493099109005 L -6.4704761275630185 24.148145657226706 L -11.662949835292403 30.00375978339136 L -7.79924653013613 31.039035963801442 L -16.340275018519314 62.91458823134071 A 16.916697508022974 16.916697508022974 0 1 0 16.340275018519314 62.91458823134071 L 5.987513214418485 24.277555179777966 Z"/><text text-anchor="middle" pointer-events="none" font-size="8px" fill="#000000" x="0" y="94.20964923467838" font-family="sans-serif">same_na…</text></g><g class="relationship" transform="translate(177.07885881204936 185.79007963947714) rotate(220.1284872822623)"><path class="outline" fill="#A5ABB6" stroke="none" d="M 5.987513214418485,-24.277555179777966 L 6.953439040707552,-24.018736134675446 A 408.9052011448302 408.9052011448302 0 0 1 367.11567848860955,-325.60711834149515 L 367.0305490876033,-326.6034882452379 A 409.9052011448302 409.9052011448302 0 0 0 5.987513214418485,-24.277555179777966 Z M 429.9650706701527,-327.1313377577476 L 429.896665738326,-326.13368011842346 A 408.9052011448302 408.9052011448302 0 0 1 795.0668935708826,-30.628865080007365 L 792.1825475722997,-29.803911650740698 L 797.4725092389352,-24.036216654858382 L 798.9126882356597,-31.72880298569625 L 796.0283422370768,-30.903849556429584 A 409.9052011448302 409.9052011448302 0 0 0 429.9650706701527,-327.1313377577476"/><text text-anchor="middle" pointer-events="none" font-size="8px" fill="#000000" x="398.4918576668871" y="-324.57708423377704" transform="rotate(180 398.4918576668871 -327.57708423377704)" font-family="sans-serif">same_name_as</text></g><g class="relationship" transform="translate(-582.8985902451193 301.70607474097494) rotate(358.5097542074373)"><path class="outline" fill="#A5ABB6" stroke="none" d="M 6.953439040707552 24.018736134675446 L 17.306200844808384 62.65576918623819 A 17.916697508022974 17.916697508022974 0 1 1 -17.306200844808384 62.65576918623819 L -8.765172356425198 30.780216918698923 L -4.901469051268926 31.815493099109005 L -6.4704761275630185 24.148145657226706 L -11.662949835292403 30.00375978339136 L -7.79924653013613 31.039035963801442 L -16.340275018519314 62.91458823134071 A 16.916697508022974 16.916697508022974 0 1 0 16.340275018519314 62.91458823134071 L 5.987513214418485 24.277555179777966 Z"/><text text-anchor="middle" pointer-events="none" font-size="8px" fill="#000000" x="0" y="94.20964923467838" font-family="sans-serif">same_na…</text></g><g class="relationship" transform="translate(531.4797098667564 -159.38987161635134) rotate(268.5766316238751)"><path class="outline" fill="#A5ABB6" stroke="none" d="M 6.953439040707552 24.018736134675446 L 17.306200844808384 62.65576918623819 A 17.916697508022974 17.916697508022974 0 1 1 -17.306200844808384 62.65576918623819 L -8.765172356425198 30.780216918698923 L -4.901469051268926 31.815493099109005 L -6.4704761275630185 24.148145657226706 L -11.662949835292403 30.00375978339136 L -7.79924653013613 31.039035963801442 L -16.340275018519314 62.91458823134071 A 16.916697508022974 16.916697508022974 0 1 0 16.340275018519314 62.91458823134071 L 5.987513214418485 24.277555179777966 Z"/><text text-anchor="middle" pointer-events="none" font-size="8px" fill="#000000" x="0" y="94.20964923467838" transform="rotate(180 0 91.20964923467838)" font-family="sans-serif">same_na…</text></g><g class="relationship" transform="translate(177.07885881204936 185.79007963947714) rotate(531.3277666857662)"><path class="outline" fill="#A5ABB6" stroke="none" d="M 14.44320574945421,-20.411854586953456 L 15.247803529220876,-19.818034401379958 A 458.4601770341617 458.4601770341617 0 0 1 349.3898196331378,-204.71764467793042 L 349.3140572742915,-205.71477058020258 A 459.4601770341617 459.4601770341617 0 0 0 14.44320574945421,-20.411854586953456 Z M 412.25349056919936,-206.17340138177138 L 412.1922673165805,-205.17527728460772 A 458.4601770341617 458.4601770341617 0 0 1 748.9933323990252,-25.16473491069721 L 746.6057565095965,-23.34828745144643 L 753.6296391188484,-19.896465745238633 L 752.1767669182635,-27.586664856364912 L 749.7891910288348,-25.770217397114134 A 459.4601770341617 459.4601770341617 0 0 0 412.25349056919936,-206.17340138177138"/><text text-anchor="middle" pointer-events="none" font-size="8px" fill="#000000" x="380.77955458583415" y="-203.5231195091091" transform="rotate(180 380.77955458583415 -206.5231195091091)" font-family="sans-serif">same_name_as</text></g><g class="relationship" transform="translate(531.4797098667564 -159.38987161635134) rotate(517.5217117524209)"><path class="outline" fill="#A5ABB6" stroke="none" d="M 25 0.5 L 568.0416469694597 0.5 L 568.0416469694597 -0.5 L 25 -0.5 Z M 630.9635219694597 0.5 L 1174.0051689389195 0.5 L 1174.0051689389195 3.5 L 1181.0051689389195 0 L 1174.0051689389195 -3.5 L 1174.0051689389195 -0.5 L 630.9635219694597 -0.5 Z"/><text text-anchor="middle" pointer-events="none" font-size="8px" fill="#000000" x="599.5025844694597" y="3" transform="rotate(180 599.5025844694597 0)" font-family="sans-serif">same_name_as</text></g><g class="relationship" transform="translate(-437.9257946900275 -332.614750075934) rotate(400.1284872822623)"><path class="outline" fill="#A5ABB6" stroke="none" d="M 14.44320574945421,20.411854586953456 L 15.247803529220876,19.818034401379958 A 480.5851315091423 480.5851315091423 0 0 0 367.1798460450823,213.76433400950867 L 367.107547330438,214.76171703315646 A 481.5851315091423 481.5851315091423 0 0 1 14.44320574945421,20.411854586953456 Z M 430.04840522950155,215.20017445818604 L 429.9900087590561,214.20188098818863 A 480.5851315091423 480.5851315091423 0 0 0 784.5898950756317,25.17741086502794 L 782.2011547464606,23.362494988246937 L 789.2228221763158,19.90616940975898 L 787.7748821811931,27.597298700735948 L 785.386141852022,25.782382823954944 A 481.5851315091423 481.5851315091423 0 0 1 430.04840522950155,215.20017445818604"/><text text-anchor="middle" pointer-events="none" font-size="8px" fill="#000000" x="398.5742884139808" y="218.51034138573277" font-family="sans-serif">same_name_as</text></g><g class="relationship" transform="translate(177.07885881204936 185.79007963947714) rotate(256.55123761701805)"><path class="outline" fill="#A5ABB6" stroke="none" d="M 6.953439040707552 24.018736134675446 L 17.306200844808384 62.65576918623819 A 17.916697508022974 17.916697508022974 0 1 1 -17.306200844808384 62.65576918623819 L -8.765172356425198 30.780216918698923 L -4.901469051268926 31.815493099109005 L -6.4704761275630185 24.148145657226706 L -11.662949835292403 30.00375978339136 L -7.79924653013613 31.039035963801442 L -16.340275018519314 62.91458823134071 A 16.916697508022974 16.916697508022974 0 1 0 16.340275018519314 62.91458823134071 L 5.987513214418485 24.277555179777966 Z"/><text text-anchor="middle" pointer-events="none" font-size="8px" fill="#000000" x="0" y="94.20964923467838" transform="rotate(180 0 91.20964923467838)" font-family="sans-serif">same_na…</text></g><g class="relationship" transform="translate(531.4797098667564 -159.38987161635134) rotate(495.75514943889334)"><path class="outline" fill="#A5ABB6" stroke="none" d="M 12.066987298107785,21.900635094610966 L 12.933012701892222,21.400635094610966 A 270.22807594500745 270.22807594500745 0 0 0 212.36188929492505,154.29100803902134 L 212.23386595068092,155.28277919373824 A 271.22807594500745 271.22807594500745 0 0 1 12.066987298107785,21.900635094610966 Z M 275.12550753475506,156.04802210320167 L 275.02165355079507,155.0534295484258 A 270.22807594500745 270.22807594500745 0 0 0 477.6249333562811,27.054839507287266 L 475.0641238482729,25.492068038487293 L 481.69820170148233,21.340079233401656 L 481.03934603362524,29.138534799020565 L 478.4785365256171,27.575763330220592 A 271.22807594500745 271.22807594500745 0 0 1 275.12550753475506,156.04802210320167"/><text text-anchor="middle" pointer-events="none" font-size="8px" fill="#000000" x="243.66351310322534" y="159.9946344453503" transform="rotate(180 243.66351310322534 156.9946344453503)" font-family="sans-serif">same_name_as</text></g><g class="relationship" transform="translate(177.07885881204936 185.79007963947714) rotate(315.75514943889334)"><path class="outline" fill="#A5ABB6" stroke="none" d="M 21.40063509461097,-12.933012701892217 L 21.90063509461097,-12.06698729810778 A 450.11351238287557 450.11351238287557 0 0 1 212.4195304606952,-71.04373719181189 L 212.34279901434846,-72.04078898843107 A 451.11351238287557 451.11351238287557 0 0 0 21.40063509461097,-12.933012701892217 Z M 275.2817912581507,-72.48067265833197 L 275.219003513615,-71.48264575531977 A 450.11351238287557 450.11351238287557 0 0 1 466.54362977774844,-15.174618757145353 L 465.0800906984889,-12.555830227408709 L 472.8980595270105,-12.196158993829265 L 468.4950152167611,-18.666336796794212 L 467.03147613750156,-16.047548267057568 A 451.11351238287557 451.11351238287557 0 0 0 275.2817912581507,-72.48067265833197"/><text text-anchor="middle" pointer-events="none" font-size="8px" fill="#000000" x="243.80810850443615" y="-69.85975826009638" font-family="sans-serif">same_name_as</text></g><g class="relationship" transform="translate(-437.9257946900275 -332.614750075934) rotate(462.8737292507797)"><path class="outline" fill="#A5ABB6" stroke="none" d="M 23.51253350472606,8.509451697326591 L 23.833972970029226,7.562521567831486 A 937.0278042074143 937.0278042074143 0 0 0 290.3878220002699,56.64981886672433 L 290.3508499198548,57.649135165635585 A 938.0278042074143 938.0278042074143 0 0 1 23.51253350472606,8.509451697326591 Z M 353.2940985015675,57.86460148368826 L 353.2639688944853,56.86505548335754 A 937.0278042074143 937.0278042074143 0 0 0 620.1476366995719,9.603812928274795 L 619.2027897717247,6.756487115702975 L 626.9488714168807,7.873724398726711 L 621.4074326033682,13.400247345037222 L 620.462585675521,10.552921532465401 A 938.0278042074143 938.0278042074143 0 0 1 353.2940985015675,57.86460148368826"/><text text-anchor="middle" pointer-events="none" font-size="8px" fill="#000000" x="321.8223780039867" y="60.784972781194256" transform="rotate(180 321.8223780039867 57.784972781194256)" font-family="sans-serif">same_name_as</text></g><g class="relationship" transform="translate(-437.9257946900275 -332.614750075934) rotate(370.1313588254916)"><path class="outline" fill="#A5ABB6" stroke="none" d="M 21.40063509461097,-12.933012701892217 L 21.90063509461097,-12.06698729810778 A 940.5543845152811 940.5543845152811 0 0 1 457.41910580943807,-137.43489759585748 L 457.3821502414081,-138.43421450554706 A 941.5543845152811 941.5543845152811 0 0 0 21.40063509461097,-12.933012701892217 Z M 520.325337561932,-138.65655608830536 L 520.2954428360696,-137.65700303550352 A 940.5543845152811 940.5543845152811 0 0 1 956.6887373289281,-15.369048649655822 L 955.2071295103136,-12.760440156259342 L 963.0224251166223,-12.346731821787962 L 958.6642144204142,-18.847193307517795 L 957.1826066017996,-16.238584814121314 A 941.5543845152811 941.5543845152811 0 0 0 520.325337561932,-138.65655608830536"/><text text-anchor="middle" pointer-events="none" font-size="8px" fill="#000000" x="488.8536516182789" y="-135.5715100132536" font-family="sans-serif">same_name_as</text></g><g class="relationship" transform="translate(531.4797098667564 -159.38987161635134) rotate(190.1313588254916)"><path class="outline" fill="#A5ABB6" stroke="none" d="M 25 0.5 L 457.4194771141299 0.5 L 457.4194771141299 -0.5 L 25 -0.5 Z M 520.3413521141299 0.5 L 952.7608292282598 0.5 L 952.7608292282598 3.5 L 959.7608292282598 0 L 952.7608292282598 -3.5 L 952.7608292282598 -0.5 L 520.3413521141299 -0.5 Z"/><text text-anchor="middle" pointer-events="none" font-size="8px" fill="#000000" x="488.8804146141299" y="3" transform="rotate(180 488.8804146141299 0)" font-family="sans-serif">same_name_as</text></g><g class="relationship" transform="translate(-437.9257946900275 -332.614750075934) rotate(400.1284872822623)"><path class="outline" fill="#A5ABB6" stroke="none" d="M 20.90208894244944,13.724164012497553 L 21.434121018964774,12.87743981326927 A 715.1663012566946 715.1663012566946 0 0 0 368.10408867242035,121.69494251844401 L 368.056796952161,122.69382363909597 A 716.1663012566946 716.1663012566946 0 0 1 20.90208894244944,13.724164012497553 Z M 429.21698177082976,122.97493127347798 L 429.1788740737871,121.97565763556588 A 715.1663012566946 715.1663012566946 0 0 0 776.8344791021909,16.349450375386578 L 775.2618003625199,13.794713288759667 L 783.0576454275989,13.10565616392548 L 778.9313840884189,19.755766490889123 L 777.3587053487479,17.20102940426221 A 716.1663012566946 716.1663012566946 0 0 1 429.21698177082976,122.97493127347798"/><text text-anchor="middle" pointer-events="none" font-size="8px" fill="#000000" x="398.6361852589987" y="125.9875680265942" font-family="sans-serif">intermediary_of</text></g><g class="relationship" transform="translate(-582.8985902451193 301.70607474097494) rotate(351.32776668576616)"><path class="outline" fill="#A5ABB6" stroke="none" d="M 20.90208894244944,13.724164012497553 L 21.434121018964774,12.87743981326927 A 681.7064967941593 681.7064967941593 0 0 0 350.3145871626949,116.52764720418156 L 350.26499212864627,117.52641661330347 A 682.7064967941593 682.7064967941593 0 0 1 20.90208894244944,13.724164012497553 Z M 411.425341279098,117.82043585230474 L 411.3853511847823,116.82123577606535 A 681.7064967941593 681.7064967941593 0 0 0 741.2471591524812,16.33783342832966 L 739.6755591306996,13.78243260428346 L 747.4716944122193,13.096666848180243 L 743.34262584819,19.74503452705793 L 741.7710258264084,17.18963370301173 A 682.7064967941593 682.7064967941593 0 0 1 411.425341279098,117.82043585230474"/><text text-anchor="middle" pointer-events="none" font-size="8px" fill="#000000" x="380.84427619122886" y="120.85866602994395" font-family="sans-serif">intermediary_of</text></g><g class="relationship" transform="translate(-582.8985902451193 301.70607474097494) rotate(407.1007479682729)"><path class="outline" fill="#A5ABB6" stroke="none" d="M 6.953439040707552 24.018736134675446 L 17.306200844808384 62.65576918623819 A 17.916697508022974 17.916697508022974 0 1 1 -17.306200844808384 62.65576918623819 L -8.765172356425198 30.780216918698923 L -4.901469051268926 31.815493099109005 L -6.4704761275630185 24.148145657226706 L -11.662949835292403 30.00375978339136 L -7.79924653013613 31.039035963801442 L -16.340275018519314 62.91458823134071 A 16.916697508022974 16.916697508022974 0 1 0 16.340275018519314 62.91458823134071 L 5.987513214418485 24.277555179777966 Z"/><text text-anchor="middle" pointer-events="none" font-size="8px" fill="#000000" x="0" y="94.20964923467838" font-family="sans-serif">same_inte…</text></g><g class="relationship" transform="translate(-582.8985902451193 301.70607474097494) rotate(319.625834918946)"><path class="outline" fill="#A5ABB6" stroke="none" d="M 24.018736134675446,-6.953439040707552 L 24.277555179777966,-5.987513214418485 A 2019.0720684240762 2019.0720684240762 0 0 1 506.29865699068233,-74.37842757682961 L 506.27857192112685,-75.37822585147342 A 2020.0720684240762 2020.0720684240762 0 0 0 24.018736134675446,-6.953439040707552 Z M 580.7770641986565,-75.50083462246221 L 580.760270142243,-74.50097565257238 A 2019.0720684240762 2019.0720684240762 0 0 1 1063.0038741037945,-7.6970371720979 L 1062.236959407306,-4.796719629429532 L 1069.8991008194353,-6.390955804069354 L 1064.0264270324458,-11.564127228989058 L 1063.2595123359572,-8.66380968632069 A 2020.0720684240762 2020.0720684240762 0 0 0 580.7770641986565,-75.50083462246221"/><text text-anchor="middle" pointer-events="none" font-size="8px" fill="#000000" x="543.5280756912302" y="-72.28299048750705" font-family="sans-serif">registered_address</text></g><g class="relationship" transform="translate(-437.9257946900275 -332.614750075934) rotate(400.1284872822623)"><path class="outline" fill="#A5ABB6" stroke="none" d="M 24.471206027250748,5.139073415689509 L 24.657117634413662,4.15650694245622 A 2029.2891952965908 2029.2891952965908 0 0 0 361.43978810554364,39.130274719692125 L 361.4198374029436,40.13007568461762 A 2030.2891952965908 2030.2891952965908 0 0 1 24.471206027250748,5.139073415689509 Z M 435.91828429637326,40.249587375724786 L 435.90154148404645,39.249727546430904 A 2029.2891952965908 2029.2891952965908 0 0 0 772.7946892825687,5.356682115187319 L 772.2464148077253,2.407208416332698 L 779.7681736590367,4.568953957028421 L 773.5257219156932,9.28931371366015 L 772.9774474408498,6.339840014805527 A 2030.2891952965908 2030.2891952965908 0 0 1 435.91828429637326,40.249587375724786"/><text text-anchor="middle" pointer-events="none" font-size="8px" fill="#000000" x="398.66931474739016" y="43.031562606783154" font-family="sans-serif">registered_address</text></g><g class="relationship" transform="translate(-582.8985902451193 301.70607474097494) rotate(351.32776668576616)"><path class="outline" fill="#A5ABB6" stroke="none" d="M 24.471206027250748,5.139073415689509 L 24.657117634413662,4.15650694245622 A 1933.535683616296 1933.535683616296 0 0 0 343.6501463219823,37.44119918199226 L 343.6292138416028,38.44098007362072 A 1934.535683616296 1934.535683616296 0 0 1 24.471206027250748,5.139073415689509 Z M 418.1281359313788,38.56597480966343 L 418.11055843609813,37.56612930576807 A 1933.535683616296 1933.535683616296 0 0 0 737.2134813731116,5.3520382616003985 L 736.665640999206,2.402483901240357 L 744.1870816096026,4.565336449213918 L 737.9439352049857,9.28477740874712 L 737.3960948310801,6.335223048387078 A 1934.535683616296 1934.535683616296 0 0 1 418.1281359313788,38.56597480966343"/><text text-anchor="middle" pointer-events="none" font-size="8px" fill="#000000" x="380.87891203863575" y="41.36213085591589" font-family="sans-serif">registered_address</text></g><g class="relationship" transform="translate(-437.9257946900275 -332.614750075934) rotate(353.83343282068813)"><path class="outline" fill="#A5ABB6" stroke="none" d="M 24.018736134675446,-6.953439040707552 L 24.277555179777966,-5.987513214418485 A 1242.9489109841666 1242.9489109841666 0 0 1 305.5360860337105,-47.68191734230095 L 305.503550248015,-48.68138791347792 A 1243.9489109841666 1243.9489109841666 0 0 0 24.018736134675446,-6.953439040707552 Z M 380.00648596501276,-48.874411359637634 L 379.97912947132346,-47.87478561854596 A 1242.9489109841666 1242.9489109841666 0 0 1 661.4499282124503,-7.638310005939846 L 660.6884966202281,-4.7365481393550155 L 668.3476111665187,-6.345263268518714 L 662.4651703354134,-11.507325828052952 L 661.7037387431911,-8.605563961468123 A 1243.9489109841666 1243.9489109841666 0 0 0 380.00648596501276,-48.874411359637634"/><text text-anchor="middle" pointer-events="none" font-size="8px" fill="#000000" x="342.7548681047451" y="-45.83579712183996" font-family="sans-serif">registered_address</text></g><g class="relationship" transform="translate(531.4797098667564 -159.38987161635134) rotate(495.75514943889334)"><path class="outline" fill="#A5ABB6" stroke="none" d="M 25 0.5 L 206.61846113740793 0.5 L 206.61846113740793 -0.5 L 25 -0.5 Z M 281.10283613740796 0.5 L 462.72129727481587 0.5 L 462.72129727481587 3.5 L 469.72129727481587 0 L 462.72129727481587 -3.5 L 462.72129727481587 -0.5 L 281.10283613740796 -0.5 Z"/><text text-anchor="middle" pointer-events="none" font-size="8px" fill="#000000" x="243.86064863740793" y="3" transform="rotate(180 243.86064863740793 0)" font-family="sans-serif">registered_address</text></g><g class="relationship" transform="translate(531.4797098667564 -159.38987161635134) rotate(221.3981138088568)"><path class="outline" fill="#A5ABB6" stroke="none" d="M 25 0.5 L 146.4804157319438 0.5 L 146.4804157319438 -0.5 L 25 -0.5 Z M 220.9647907319438 0.5 L 342.4452064638876 0.5 L 342.4452064638876 3.5 L 349.4452064638876 0 L 342.4452064638876 -3.5 L 342.4452064638876 -0.5 L 220.9647907319438 -0.5 Z"/><text text-anchor="middle" pointer-events="none" font-size="8px" fill="#000000" x="183.7226032319438" y="3" transform="rotate(180 183.7226032319438 0)" font-family="sans-serif">registered_address</text></g><g class="relationship" transform="translate(177.07885881204936 185.79007963947714) rotate(287.34732579514275)"><path class="outline" fill="#A5ABB6" stroke="none" d="M 6.953439040707552 24.018736134675446 L 17.306200844808384 62.65576918623819 A 17.916697508022974 17.916697508022974 0 1 1 -17.306200844808384 62.65576918623819 L -8.765172356425198 30.780216918698923 L -4.901469051268926 31.815493099109005 L -6.4704761275630185 24.148145657226706 L -11.662949835292403 30.00375978339136 L -7.79924653013613 31.039035963801442 L -16.340275018519314 62.91458823134071 A 16.916697508022974 16.916697508022974 0 1 0 16.340275018519314 62.91458823134071 L 5.987513214418485 24.277555179777966 Z"/><text text-anchor="middle" pointer-events="none" font-size="8px" fill="#000000" x="0" y="94.20964923467838" font-family="sans-serif">registered…</text></g><g class="relationship" transform="translate(177.07885881204936 185.79007963947714) rotate(277.069597504956)"><path class="outline" fill="#A5ABB6" stroke="none" d="M 21.40063509461097,-12.933012701892217 L 21.90063509461097,-12.06698729810778 A 552.8678523053393 552.8678523053393 0 0 1 257.95515193738186,-84.66068199463814 L 257.88211566091627,-85.65801127943837 A 553.8678523053393 553.8678523053393 0 0 0 21.40063509461097,-12.933012701892217 Z M 332.3762718817228,-86.090112480004 L 332.3148100899023,-85.09200304304522 A 552.8678523053393 552.8678523053393 0 0 1 569.1955700621811,-15.241555753686013 L 567.7258101131148,-12.626253535562718 L 575.5429018959798,-12.24799957555186 L 571.1552499942694,-18.728625377850406 L 569.6854900452031,-16.113323159727113 A 553.8678523053393 553.8678523053393 0 0 0 332.3762718817228,-86.090112480004"/><text text-anchor="middle" pointer-events="none" font-size="8px" fill="#000000" x="295.1248210063222" y="-83.62792564682093" font-family="sans-serif">registered_address</text></g><g class="relationship" transform="translate(-582.8985902451193 301.70607474097494) rotate(282.8737292507797)"><path class="outline" fill="#A5ABB6" stroke="none" d="M 25 0.5 L 302.60782451082343 0.5 L 302.60782451082343 -0.5 L 25 -0.5 Z M 341.06876201082343 0.5 L 618.6765865216469 0.5 L 618.6765865216469 3.5 L 625.6765865216469 0 L 618.6765865216469 -3.5 L 618.6765865216469 -0.5 L 341.06876201082343 -0.5 Z"/><text text-anchor="middle" pointer-events="none" font-size="8px" fill="#000000" x="321.83829326082343" y="3" font-family="sans-serif">same_as</text></g><g class="relationship" transform="translate(250.59606380256457 -407.00568294000095) rotate(533.8334328206881)"><path class="outline" fill="#A5ABB6" stroke="none" d="M 24.018736134675446,-6.953439040707552 L 24.277555179777966,-5.987513214418485 A 1242.9489109841666 1242.9489109841666 0 0 1 323.5346433557037,-48.13735791587328 L 323.5165880986631,-49.13719490643393 A 1243.9489109841666 1243.9489109841666 0 0 0 24.018736134675446,-6.953439040707552 Z M 361.991328122845,-49.236875903405235 L 361.9784538620538,-48.236958780134955 A 1242.9489109841666 1242.9489109841666 0 0 1 661.4499282124503,-7.638310005939846 L 660.6884966202281,-4.7365481393550155 L 668.3476111665187,-6.345263268518714 L 662.4651703354134,-11.507325828052952 L 661.7037387431911,-8.605563961468123 A 1243.9489109841666 1243.9489109841666 0 0 0 361.991328122845,-49.236875903405235"/><text text-anchor="middle" pointer-events="none" font-size="8px" fill="#000000" x="342.7548681047451" y="-45.83579712183996" transform="rotate(180 342.7548681047451 -48.83579712183996)" font-family="sans-serif">same_as</text></g><g class="relationship" transform="translate(-582.8985902451193 301.70607474097494) rotate(351.32776668576616)"><path class="outline" fill="#A5ABB6" stroke="none" d="M 24.471206027250748,-5.139073415689509 L 24.657117634413662,-4.15650694245622 A 1933.535683616296 1933.535683616296 0 0 1 361.65475799901697,-37.734295096330925 L 361.6431372742102,-38.7342275734286 A 1934.535683616296 1934.535683616296 0 0 0 24.471206027250748,-5.139073415689509 Z M 400.1133298960171,-38.798773092174315 L 400.10506461254414,-37.79880725021326 A 1933.535683616296 1933.535683616296 0 0 1 737.2134813731116,-5.3520382616003985 L 736.665640999206,-2.402483901240357 L 744.1870816096026,-4.565336449213918 L 737.9439352049857,-9.28477740874712 L 737.3960948310801,-6.335223048387078 A 1934.535683616296 1934.535683616296 0 0 0 400.1133298960171,-38.798773092174315"/><text text-anchor="middle" pointer-events="none" font-size="8px" fill="#000000" x="380.87891203863495" y="-35.36213085591589" font-family="sans-serif">same_as</text></g><g class="relationship" transform="translate(250.59606380256457 -407.00568294000095) rotate(519.688326483411)"><path class="outline" fill="#A5ABB6" stroke="none" d="M 6.953439040707552 24.018736134675446 L 17.306200844808384 62.65576918623819 A 17.916697508022974 17.916697508022974 0 1 1 -17.306200844808384 62.65576918623819 L -8.765172356425198 30.780216918698923 L -4.901469051268926 31.815493099109005 L -6.4704761275630185 24.148145657226706 L -11.662949835292403 30.00375978339136 L -7.79924653013613 31.039035963801442 L -16.340275018519314 62.91458823134071 A 16.916697508022974 16.916697508022974 0 1 0 16.340275018519314 62.91458823134071 L 5.987513214418485 24.277555179777966 Z"/><text text-anchor="middle" pointer-events="none" font-size="8px" fill="#000000" x="0" y="94.20964923467838" transform="rotate(180 0 91.20964923467838)" font-family="sans-serif">same_as</text></g><g class="relationship" transform="translate(-582.8985902451193 301.70607474097494) rotate(319.625834918946)"><path class="outline" fill="#A5ABB6" stroke="none" d="M 24.018736134675446,6.953439040707552 L 24.277555179777966,5.987513214418485 A 2019.0720684240762 2019.0720684240762 0 0 0 524.3036580710361,74.65981696301446 L 524.2924904647856,75.6597546033554 A 2020.0720684240762 2020.0720684240762 0 0 1 24.018736134675446,6.953439040707552 Z M 562.7623165693379,75.72306780547024 L 562.7544403866533,74.72309882307832 A 2019.0720684240762 2019.0720684240762 0 0 0 1063.0038741037945,7.6970371720979 L 1062.236959407306,4.796719629429532 L 1069.8991008194353,6.390955804069354 L 1064.0264270324458,11.564127228989058 L 1063.2595123359572,8.66380968632069 A 2020.0720684240762 2020.0720684240762 0 0 1 562.7623165693379,75.72306780547024"/><text text-anchor="middle" pointer-events="none" font-size="8px" fill="#000000" x="543.5280756912309" y="78.28299048750705" font-family="sans-serif">same_as</text></g><g class="relationship" transform="translate(250.59606380256457 -407.00568294000095) rotate(457.069597504956)"><path class="outline" fill="#A5ABB6" stroke="none" d="M 25 0.5 L 275.93807477350305 0.5 L 275.93807477350305 -0.5 L 25 -0.5 Z M 314.39901227350305 0.5 L 565.3370870470061 0.5 L 565.3370870470061 3.5 L 572.3370870470061 0 L 565.3370870470061 -3.5 L 565.3370870470061 -0.5 L 314.39901227350305 -0.5 Z"/><text text-anchor="middle" pointer-events="none" font-size="8px" fill="#000000" x="295.16854352350305" y="3" transform="rotate(180 295.16854352350305 0)" font-family="sans-serif">same_as</text></g><g class="relationship" transform="translate(177.07885881204936 185.79007963947714) rotate(318.1434139732674)"><path class="outline" fill="#A5ABB6" stroke="none" d="M 6.953439040707552 24.018736134675446 L 17.306200844808384 62.65576918623819 A 17.916697508022974 17.916697508022974 0 1 1 -17.306200844808384 62.65576918623819 L -8.765172356425198 30.780216918698923 L -4.901469051268926 31.815493099109005 L -6.4704761275630185 24.148145657226706 L -11.662949835292403 30.00375978339136 L -7.79924653013613 31.039035963801442 L -16.340275018519314 62.91458823134071 A 16.916697508022974 16.916697508022974 0 1 0 16.340275018519314 62.91458823134071 L 5.987513214418485 24.277555179777966 Z"/><text text-anchor="middle" pointer-events="none" font-size="8px" fill="#000000" x="0" y="94.20964923467838" font-family="sans-serif">same_as</text></g><g class="relationship" transform="translate(177.07885881204936 185.79007963947714) rotate(220.1284872822623)"><path class="outline" fill="#A5ABB6" stroke="none" d="M 24.471206027250748,5.139073415689509 L 24.657117634413662,4.15650694245622 A 2029.2891952965908 2029.2891952965908 0 0 0 379.44484361664377,39.4096488442367 L 379.43376550625624,40.40958748008916 A 2030.2891952965908 2030.2891952965908 0 0 1 24.471206027250748,5.139073415689509 Z M 417.9035521180128,40.4713013740859 L 417.89568229393814,39.47133234163084 A 2029.2891952965908 2029.2891952965908 0 0 0 772.7946892825687,5.356682115187319 L 772.2464148077253,2.407208416332698 L 779.7681736590367,4.568953957028421 L 773.5257219156932,9.28931371366015 L 772.9774474408498,6.339840014805527 A 2030.2891952965908 2030.2891952965908 0 0 1 417.9035521180128,40.4713013740859"/><text text-anchor="middle" pointer-events="none" font-size="8px" fill="#000000" x="398.66931474739016" y="43.031562606783154" transform="rotate(180 398.66931474739016 40.031562606783154)" font-family="sans-serif">same_as</text></g><g class="relationship" transform="translate(177.07885881204936 185.79007963947714) rotate(277.069597504956)"><path class="outline" fill="#A5ABB6" stroke="none" d="M 21.40063509461097,12.933012701892217 L 21.90063509461097,12.06698729810778 A 552.8678523053393 552.8678523053393 0 0 0 275.920754633693,85.68270884831713 L 275.88021364994773,86.68188672469205 A 553.8678523053393 553.8678523053393 0 0 1 21.40063509461097,12.933012701892217 Z M 314.36750744045355,86.90513116018985 L 314.338560199471,85.90555021937541 A 552.8678523053393 552.8678523053393 0 0 0 569.1955700621811,15.241555753686013 L 567.7258101131148,12.626253535562718 L 575.5429018959798,12.24799957555186 L 571.1552499942694,18.728625377850406 L 569.6854900452031,16.113323159727113 A 553.8678523053393 553.8678523053393 0 0 1 314.36750744045355,86.90513116018985"/><text text-anchor="middle" pointer-events="none" font-size="8px" fill="#000000" x="295.1248210063221" y="89.62792564682093" font-family="sans-serif">same_as</text></g><g class="relationship" transform="translate(-437.9257946900275 -332.614750075934) rotate(480.4278879235976)"><path class="outline" fill="#A5ABB6" stroke="none" d="M 6.953439040707552 24.018736134675446 L 17.306200844808384 62.65576918623819 A 17.916697508022974 17.916697508022974 0 1 1 -17.306200844808384 62.65576918623819 L -8.765172356425198 30.780216918698923 L -4.901469051268926 31.815493099109005 L -6.4704761275630185 24.148145657226706 L -11.662949835292403 30.00375978339136 L -7.79924653013613 31.039035963801442 L -16.340275018519314 62.91458823134071 A 16.916697508022974 16.916697508022974 0 1 0 16.340275018519314 62.91458823134071 L 5.987513214418485 24.277555179777966 Z"/><text text-anchor="middle" pointer-events="none" font-size="8px" fill="#000000" x="0" y="94.20964923467838" transform="rotate(180 0 91.20964923467838)" font-family="sans-serif">same_id_as</text></g><g class="relationship" transform="translate(-437.9257946900275 -332.614750075934) rotate(462.8737292507797)"><path class="outline" fill="#A5ABB6" stroke="none" d="M 23.51253350472606,-8.509451697326591 L 23.833972970029226,-7.562521567831486 A 937.0278042074143 937.0278042074143 0 0 1 300.38133960478024,-56.96617184003719 L 300.3550326482383,-57.965825752167575 A 938.0278042074143 938.0278042074143 0 0 0 23.51253350472606,-8.509451697326591 Z M 343.28798207737503,-58.112793135406946 L 343.26851965561434,-57.11298254627559 A 937.0278042074143 937.0278042074143 0 0 1 620.1476366995719,-9.603812928274795 L 619.2027897717247,-6.756487115702975 L 626.9488714168807,-7.873724398726711 L 621.4074326033682,-13.400247345037222 L 620.462585675521,-10.552921532465401 A 938.0278042074143 938.0278042074143 0 0 0 343.28798207737503,-58.112793135406946"/><text text-anchor="middle" pointer-events="none" font-size="8px" fill="#000000" x="321.8223780039869" y="-54.784972781194256" transform="rotate(180 321.8223780039869 -57.784972781194256)" font-family="sans-serif">underlying</text></g><g class="relationship" transform="translate(-582.8985902451193 301.70607474097494) rotate(455.69174172910846)"><path class="outline" fill="#A5ABB6" stroke="none" d="M 6.953439040707552 24.018736134675446 L 17.306200844808384 62.65576918623819 A 17.916697508022974 17.916697508022974 0 1 1 -17.306200844808384 62.65576918623819 L -8.765172356425198 30.780216918698923 L -4.901469051268926 31.815493099109005 L -6.4704761275630185 24.148145657226706 L -11.662949835292403 30.00375978339136 L -7.79924653013613 31.039035963801442 L -16.340275018519314 62.91458823134071 A 16.916697508022974 16.916697508022974 0 1 0 16.340275018519314 62.91458823134071 L 5.987513214418485 24.277555179777966 Z"/><text text-anchor="middle" pointer-events="none" font-size="8px" fill="#000000" x="0" y="94.20964923467838" transform="rotate(180 0 91.20964923467838)" font-family="sans-serif">underlying</text></g><g class="relationship" transform="translate(-582.8985902451193 301.70607474097494) rotate(282.8737292507797)"><path class="outline" fill="#A5ABB6" stroke="none" d="M 19.529452792776517,15.615712395363635 L 20.13821422178524,14.822359055072399 A 500.84230139769534 500.84230139769534 0 0 0 300.35380392712557,117.7114043871149 L 300.30453116136147,118.7101897467162 A 501.84230139769534 501.84230139769534 0 0 1 19.529452792776517,15.615712395363635 Z M 343.24737413531585,118.9890456485764 L 343.2110765080415,117.9897046245739 A 500.84230139769534 500.84230139769534 0 0 0 624.7392302944379,18.74842798591308 L 622.9440092829774,16.34485116791643 L 630.6467797050068,14.960175095504793 L 627.1328583097185,21.95319707657528 L 625.337637298258,19.54962025857863 A 501.84230139769534 501.84230139769534 0 0 1 343.24737413531585,118.9890456485764"/><text text-anchor="middle" pointer-events="none" font-size="8px" fill="#000000" x="321.7762152507728" y="121.80917783240488" font-family="sans-serif">underlying</text></g><g class="relationship" transform="translate(-437.9257946900275 -332.614750075934) rotate(516.2792741478702)"><path class="outline" fill="#A5ABB6" stroke="none" d="M 6.953439040707552 24.018736134675446 L 17.306200844808384 62.65576918623819 A 17.916697508022974 17.916697508022974 0 1 1 -17.306200844808384 62.65576918623819 L -8.765172356425198 30.780216918698923 L -4.901469051268926 31.815493099109005 L -6.4704761275630185 24.148145657226706 L -11.662949835292403 30.00375978339136 L -7.79924653013613 31.039035963801442 L -16.340275018519314 62.91458823134071 A 16.916697508022974 16.916697508022974 0 1 0 16.340275018519314 62.91458823134071 L 5.987513214418485 24.277555179777966 Z"/><text text-anchor="middle" pointer-events="none" font-size="8px" fill="#000000" x="0" y="94.20964923467838" transform="rotate(180 0 91.20964923467838)" font-family="sans-serif">underlying</text></g><g class="relationship" transform="translate(177.07885881204936 185.79007963947714) rotate(348.9395021513921)"><path class="outline" fill="#A5ABB6" stroke="none" d="M 6.953439040707552 24.018736134675446 L 17.306200844808384 62.65576918623819 A 17.916697508022974 17.916697508022974 0 1 1 -17.306200844808384 62.65576918623819 L -8.765172356425198 30.780216918698923 L -4.901469051268926 31.815493099109005 L -6.4704761275630185 24.148145657226706 L -11.662949835292403 30.00375978339136 L -7.79924653013613 31.039035963801442 L -16.340275018519314 62.91458823134071 A 16.916697508022974 16.916697508022974 0 1 0 16.340275018519314 62.91458823134071 L 5.987513214418485 24.277555179777966 Z"/><text text-anchor="middle" pointer-events="none" font-size="8px" fill="#000000" x="0" y="94.20964923467838" font-family="sans-serif">similar_co…</text></g><g class="relationship" transform="translate(250.59606380256457 -407.00568294000095) rotate(235.54322014613388)"><path class="outline" fill="#A5ABB6" stroke="none" d="M 6.953439040707552 24.018736134675446 L 17.306200844808384 62.65576918623819 A 17.916697508022974 17.916697508022974 0 1 1 -17.306200844808384 62.65576918623819 L -8.765172356425198 30.780216918698923 L -4.901469051268926 31.815493099109005 L -6.4704761275630185 24.148145657226706 L -11.662949835292403 30.00375978339136 L -7.79924653013613 31.039035963801442 L -16.340275018519314 62.91458823134071 A 16.916697508022974 16.916697508022974 0 1 0 16.340275018519314 62.91458823134071 L 5.987513214418485 24.277555179777966 Z"/><text text-anchor="middle" pointer-events="none" font-size="8px" fill="#000000" x="0" y="94.20964923467838" transform="rotate(180 0 91.20964923467838)" font-family="sans-serif">same_add…</text></g><g class="relationship" transform="translate(531.4797098667564 -159.38987161635134) rotate(495.75514943889334)"><path class="outline" fill="#A5ABB6" stroke="none" d="M 21.40063509461097,-12.933012701892217 L 21.90063509461097,-12.06698729810778 A 450.11351238287557 450.11351238287557 0 0 1 216.8445348974332,-71.36234994555389 L 216.77763431444646,-72.36010959195983 A 451.11351238287557 451.11351238287557 0 0 0 21.40063509461097,-12.933012701892217 Z M 270.8429259155489,-72.73797453761432 L 270.7899779679174,-71.7393772640142 A 450.11351238287557 450.11351238287557 0 0 1 466.54362977774844,-15.174618757145353 L 465.0800906984889,-12.555830227408709 L 472.8980595270105,-12.196158993829265 L 468.4950152167611,-18.666336796794212 L 467.03147613750156,-16.047548267057568 A 451.11351238287557 451.11351238287557 0 0 0 270.8429259155489,-72.73797453761432"/><text text-anchor="middle" pointer-events="none" font-size="8px" fill="#000000" x="243.80810850443615" y="-69.85975826009638" transform="rotate(180 243.80810850443615 -72.85975826009638)" font-family="sans-serif">connected_to</text></g><g class="relationship" transform="translate(-582.8985902451193 301.70607474097494) rotate(351.32776668576616)"><path class="outline" fill="#A5ABB6" stroke="none" d="M 20.90208894244944,-13.724164012497553 L 21.434121018964774,-12.87743981326927 A 681.7064967941593 681.7064967941593 0 0 1 353.8568918153597,-116.69430932713419 L 353.81249301263546,-117.69332321408297 A 682.7064967941593 682.7064967941593 0 0 0 20.90208894244944,-13.724164012497553 Z M 407.87639964120825,-117.95322736612206 L 407.84160788857315,-116.95383278241229 A 681.7064967941593 681.7064967941593 0 0 1 741.2471591524812,-16.33783342832966 L 739.6755591306996,-13.78243260428346 L 747.4716944122193,-13.096666848180243 L 743.34262584819,-19.74503452705793 L 741.7710258264084,-17.18963370301173 A 682.7064967941593 682.7064967941593 0 0 0 407.87639964120825,-117.95322736612206"/><text text-anchor="middle" pointer-events="none" font-size="8px" fill="#000000" x="380.84427619122874" y="-114.85866602994395" font-family="sans-serif">connected_to</text></g><g class="relationship" transform="translate(-437.9257946900275 -332.614750075934) rotate(400.1284872822623)"><path class="outline" fill="#A5ABB6" stroke="none" d="M 20.90208894244944,-13.724164012497553 L 21.434121018964774,-12.87743981326927 A 715.1663012566946 715.1663012566946 0 0 1 371.64687078056085,-121.85387184696663 L 371.6045328481155,-122.85297519471214 A 716.1663012566946 716.1663012566946 0 0 0 20.90208894244944,-13.724164012497553 Z M 425.66793279687016,-123.10146421598142 L 425.63478072112343,-122.10201389711926 A 715.1663012566946 715.1663012566946 0 0 1 776.8344791021909,-16.349450375386578 L 775.2618003625199,-13.794713288759667 L 783.0576454275989,-13.10565616392548 L 778.9313840884189,-19.755766490889123 L 777.3587053487479,-17.20102940426221 A 716.1663012566946 716.1663012566946 0 0 0 425.66793279687016,-123.10146421598142"/><text text-anchor="middle" pointer-events="none" font-size="8px" fill="#000000" x="398.63618525899847" y="-119.9875680265942" font-family="sans-serif">connected_to</text></g><g class="relationship" transform="translate(-582.8985902451193 301.70607474097494) rotate(337.52171175242086)"><path class="outline" fill="#A5ABB6" stroke="none" d="M 21.40063509461097,12.933012701892217 L 21.90063509461097,12.06698729810778 A 1161.8730543965073 1161.8730543965073 0 0 0 580.1110408468709,167.5061790137463 L 580.0914809462777,168.50598770059037 A 1162.8730543965073 1162.8730543965073 0 0 1 21.40063509461097,12.933012701892217 Z M 618.8679148083176,168.6179596292775 L 618.8541293375348,167.61805465339467 A 1161.8730543965073 1161.8730543965073 0 0 0 1177.9529197468105,15.405236618230605 L 1176.4679491935876,12.798540921364303 L 1184.282704798369,12.37475461018855 L 1179.9328804844408,18.880830880719007 L 1178.447909931218,16.274135183852707 A 1162.8730543965073 1162.8730543965073 0 0 1 618.8679148083176,168.6179596292775"/><text text-anchor="middle" pointer-events="none" font-size="8px" fill="#000000" x="599.4806749328612" y="171.22361448073957" font-family="sans-serif">officer_of</text></g><g class="relationship" transform="translate(-437.9257946900275 -332.614750075934) rotate(400.1284872822623)"><path class="outline" fill="#A5ABB6" stroke="none" d="M 14.44320574945421,-20.411854586953456 L 15.247803529220876,-19.818034401379958 A 480.5851315091423 480.5851315091423 0 0 1 379.225477215947,-214.48560503534895 L 379.17824301200255,-215.48448887743353 A 481.5851315091423 481.5851315091423 0 0 0 14.44320574945421,-20.411854586953456 Z M 417.9688115861238,-215.75471100945015 L 417.9354981027829,-214.7552660575755 A 480.5851315091423 480.5851315091423 0 0 1 784.5898950756317,-25.17741086502794 L 782.2011547464606,-23.362494988246937 L 789.2228221763158,-19.90616940975898 L 787.7748821811931,-27.597298700735948 L 785.386141852022,-25.782382823954944 A 481.5851315091423 481.5851315091423 0 0 0 417.9688115861238,-215.75471100945015"/><text text-anchor="middle" pointer-events="none" font-size="8px" fill="#000000" x="398.5742884139808" y="-212.51034138573277" font-family="sans-serif">officer_of</text></g><g class="relationship" transform="translate(177.07885881204936 185.79007963947714) rotate(220.1284872822623)"><path class="outline" fill="#A5ABB6" stroke="none" d="M 5.987513214418485,24.277555179777966 L 6.953439040707552,24.018736134675446 A 408.9052011448302 408.9052011448302 0 0 0 379.1506129358391,326.4567400067903 L 379.0949156242597,327.455187706714 A 409.9052011448302 409.9052011448302 0 0 1 5.987513214418485,24.277555179777966 Z M 417.8881155052358,327.7805571721671 L 417.8491733739083,326.78131570464905 A 408.9052011448302 408.9052011448302 0 0 0 795.0668935708826,30.628865080007365 L 792.1825475722997,29.803911650740698 L 797.4725092389352,24.036216654858382 L 798.9126882356597,31.72880298569625 L 796.0283422370768,30.903849556429584 A 409.9052011448302 409.9052011448302 0 0 1 417.8881155052358,327.7805571721671"/><text text-anchor="middle" pointer-events="none" font-size="8px" fill="#000000" x="398.49185766688714" y="330.57708423377704" transform="rotate(180 398.49185766688714 327.57708423377704)" font-family="sans-serif">officer_of</text></g><g class="relationship" transform="translate(-582.8985902451193 301.70607474097494) rotate(504.28273548994406)"><path class="outline" fill="#A5ABB6" stroke="none" d="M 6.953439040707552 24.018736134675446 L 17.306200844808384 62.65576918623819 A 17.916697508022974 17.916697508022974 0 1 1 -17.306200844808384 62.65576918623819 L -8.765172356425198 30.780216918698923 L -4.901469051268926 31.815493099109005 L -6.4704761275630185 24.148145657226706 L -11.662949835292403 30.00375978339136 L -7.79924653013613 31.039035963801442 L -16.340275018519314 62.91458823134071 A 16.916697508022974 16.916697508022974 0 1 0 16.340275018519314 62.91458823134071 L 5.987513214418485 24.277555179777966 Z"/><text text-anchor="middle" pointer-events="none" font-size="8px" fill="#000000" x="0" y="94.20964923467838" transform="rotate(180 0 91.20964923467838)" font-family="sans-serif">officer_of</text></g><g class="relationship" transform="translate(-582.8985902451193 301.70607474097494) rotate(351.32776668576616)"><path class="outline" fill="#A5ABB6" stroke="none" d="M 14.44320574945421,-20.411854586953456 L 15.247803529220876,-19.818034401379958 A 458.4601770341617 458.4601770341617 0 0 1 361.43269743512474,-205.4734189679703 L 361.38320317633435,-206.47219337610602 A 459.4601770341617 459.4601770341617 0 0 0 14.44320574945421,-20.411854586953456 Z M 400.174588421089,-206.75486074658272 L 400.13965450267557,-205.75547112218976 A 458.4601770341617 458.4601770341617 0 0 1 748.9933323990252,-25.16473491069721 L 746.6057565095965,-23.34828745144643 L 753.6296391188484,-19.896465745238633 L 752.1767669182635,-27.586664856364912 L 749.7891910288348,-25.770217397114134 A 459.4601770341617 459.4601770341617 0 0 0 400.174588421089,-206.75486074658272"/><text text-anchor="middle" pointer-events="none" font-size="8px" fill="#000000" x="380.77955458583415" y="-203.5231195091091" font-family="sans-serif">officer_of</text></g><g class="relationship" transform="translate(-437.9257946900275 -332.614750075934) rotate(462.8737292507797)"><path class="outline" fill="#A5ABB6" stroke="none" d="M 13.473521019338785,-21.06452542407343 L 14.30499063164133,-20.50895519105383 A 373.7078229912992 373.7078229912992 0 0 1 302.3677819313087,-185.90796445663696 L 302.30713587039423,-186.90612379025836 A 374.7078229912992 374.7078229912992 0 0 0 13.473521019338785,-21.06452542407343 Z M 341.10176293689807,-187.25107910447124 L 341.0588759923983,-186.25199917273832 A 373.7078229912992 373.7078229912992 0 0 1 632.0172876395226,-26.001549285139273 L 629.5529110911245,-24.29074589850881 L 636.4198916330599,-20.536471236649156 L 635.3031230373865,-28.282620467313222 L 632.8387464889885,-26.57181708068276 A 374.7078229912992 374.7078229912992 0 0 0 341.10176293689807,-187.25107910447124"/><text text-anchor="middle" pointer-events="none" font-size="8px" fill="#000000" x="321.7044276897852" y="-184.08104344812025" transform="rotate(180 321.7044276897852 -187.08104344812025)" font-family="sans-serif">officer_of</text></g><g class="relationship" transform="translate(177.07885881204936 185.79007963947714) rotate(531.3277666857662)"><path class="outline" fill="#A5ABB6" stroke="none" d="M 5.987513214418485,24.277555179777966 L 6.953439040707552,24.018736134675446 A 390.4755362949678 390.4755362949678 0 0 0 361.3545332539877,312.7673425545663 L 361.29622150661385,313.7656409769422 A 391.4755362949678 391.4755362949678 0 0 1 5.987513214418485,24.277555179777966 Z M 400.0901245794826,314.10604010879285 L 400.04933970528975,313.1068721579272 A 390.4755362949678 390.4755362949678 0 0 0 759.4627548673426,30.62166849085389 L 756.5790486484115,29.79448142440631 L 761.8734757255421,24.03088515775594 L 763.3076964925841,31.72458457945066 L 760.423990273653,30.89739751300308 A 391.4755362949678 391.4755362949678 0 0 1 400.0901245794826,314.10604010879285"/><text text-anchor="middle" pointer-events="none" font-size="8px" fill="#000000" x="380.69334084608045" y="316.9167167145217" transform="rotate(180 380.69334084608045 313.9167167145217)" font-family="sans-serif">officer_of</text></g><g class="relationship" transform="translate(-437.9257946900275 -332.614750075934) rotate(192.13066037214287)"><path class="outline" fill="#A5ABB6" stroke="none" d="M 6.953439040707552 24.018736134675446 L 17.306200844808384 62.65576918623819 A 17.916697508022974 17.916697508022974 0 1 1 -17.306200844808384 62.65576918623819 L -8.765172356425198 30.780216918698923 L -4.901469051268926 31.815493099109005 L -6.4704761275630185 24.148145657226706 L -11.662949835292403 30.00375978339136 L -7.79924653013613 31.039035963801442 L -16.340275018519314 62.91458823134071 A 16.916697508022974 16.916697508022974 0 1 0 16.340275018519314 62.91458823134071 L 5.987513214418485 24.277555179777966 Z"/><text text-anchor="middle" pointer-events="none" font-size="8px" fill="#000000" x="0" y="94.20964923467838" transform="rotate(180 0 91.20964923467838)" font-family="sans-serif">officer_of</text></g><g class="relationship" transform="translate(-582.8985902451193 301.70607474097494) rotate(282.8737292507797)"><path class="outline" fill="#A5ABB6" stroke="none" d="M 5.987513214418485,24.277555179777966 L 6.953439040707552,24.018736134675446 A 329.29883602954214 329.29883602954214 0 0 0 302.28606588632664,267.3022696335406 L 302.2169929927917,268.2998812490397 A 330.29883602954214 330.29883602954214 0 0 1 5.987513214418485,24.277555179777966 Z M 341.01305449981066,268.7019096323818 L 340.9646699358099,267.70308085127544 A 329.29883602954214 329.29883602954214 0 0 0 641.2754382773056,30.59196645669975 L 638.3943735936739,29.755625444474468 L 643.7070780864365,24.0088723635966 L 645.1168578554812,31.707087806333462 L 642.2357931718494,30.87074679410818 A 330.29883602954214 330.29883602954214 0 0 1 341.01305449981066,268.7019096323818"/><text text-anchor="middle" pointer-events="none" font-size="8px" fill="#000000" x="321.6142967020453" y="271.57105579465315" font-family="sans-serif">officer_of</text></g><g class="relationship" transform="translate(177.07885881204936 185.79007963947714) rotate(315.75514943889334)"><path class="outline" fill="#A5ABB6" stroke="none" d="M 12.066987298107785,21.900635094610966 L 12.933012701892222,21.400635094610966 A 270.22807594500745 270.22807594500745 0 0 0 224.35090193474497,155.56741646902918 L 224.26724486368653,156.5639110723572 A 271.22807594500745 271.22807594500745 0 0 1 12.066987298107785,21.900635094610966 Z M 263.06451912335416,157.03598237286593 L 263.00513320697667,156.03774727383563 A 270.22807594500745 270.22807594500745 0 0 0 477.6249333562811,27.054839507287266 L 475.0641238482729,25.492068038487293 L 481.69820170148233,21.340079233401656 L 481.03934603362524,29.138534799020565 L 478.4785365256171,27.575763330220592 A 271.22807594500745 271.22807594500745 0 0 1 263.06451912335416,157.03598237286593"/><text text-anchor="middle" pointer-events="none" font-size="8px" fill="#000000" x="243.66351310322534" y="159.9946344453503" font-family="sans-serif">officer_of</text></g><g class="relationship" transform="translate(177.07885881204936 185.79007963947714) rotate(379.73559032951675)"><path class="outline" fill="#A5ABB6" stroke="none" d="M 6.953439040707552 24.018736134675446 L 17.306200844808384 62.65576918623819 A 17.916697508022974 17.916697508022974 0 1 1 -17.306200844808384 62.65576918623819 L -8.765172356425198 30.780216918698923 L -4.901469051268926 31.815493099109005 L -6.4704761275630185 24.148145657226706 L -11.662949835292403 30.00375978339136 L -7.79924653013613 31.039035963801442 L -16.340275018519314 62.91458823134071 A 16.916697508022974 16.916697508022974 0 1 0 16.340275018519314 62.91458823134071 L 5.987513214418485 24.277555179777966 Z"/><text text-anchor="middle" pointer-events="none" font-size="8px" fill="#000000" x="0" y="94.20964923467838" font-family="sans-serif">officer_of</text></g><g class="relationship" transform="translate(-437.9257946900275 -332.614750075934) rotate(370.1313588254916)"><path class="outline" fill="#A5ABB6" stroke="none" d="M 21.40063509461097,12.933012701892217 L 21.90063509461097,12.06698729810778 A 940.5543845152811 940.5543845152811 0 0 0 469.4870505707294,137.80363502984562 L 469.46292567465207,138.80334398218588 A 941.5543845152811 941.5543845152811 0 0 1 21.40063509461097,12.933012701892217 Z M 508.2422558061125,138.9403287458557 L 508.2251942016868,137.94047430562227 A 940.5543845152811 940.5543845152811 0 0 0 956.6887373289281,15.369048649655822 L 955.2071295103136,12.760440156259342 L 963.0224251166223,12.346731821787962 L 958.6642144204142,18.847193307517795 L 957.1826066017996,16.238584814121314 A 941.5543845152811 941.5543845152811 0 0 1 508.2422558061125,138.9403287458557"/><text text-anchor="middle" pointer-events="none" font-size="8px" fill="#000000" x="488.85365161827895" y="141.5715100132536" font-family="sans-serif">officer_of</text></g><g class="relationship" transform="translate(-437.9257946900275 -332.614750075934) rotate(227.9820465964155)"><path class="outline" fill="#A5ABB6" stroke="none" d="M 6.953439040707552 24.018736134675446 L 17.306200844808384 62.65576918623819 A 17.916697508022974 17.916697508022974 0 1 1 -17.306200844808384 62.65576918623819 L -8.765172356425198 30.780216918698923 L -4.901469051268926 31.815493099109005 L -6.4704761275630185 24.148145657226706 L -11.662949835292403 30.00375978339136 L -7.79924653013613 31.039035963801442 L -16.340275018519314 62.91458823134071 A 16.916697508022974 16.916697508022974 0 1 0 16.340275018519314 62.91458823134071 L 5.987513214418485 24.277555179777966 Z"/><text text-anchor="middle" pointer-events="none" font-size="8px" fill="#000000" x="0" y="94.20964923467838" transform="rotate(180 0 91.20964923467838)" font-family="sans-serif">probably_s…</text></g><g class="relationship" transform="translate(177.07885881204936 185.79007963947714) rotate(410.53167850764146)"><path class="outline" fill="#A5ABB6" stroke="none" d="M 6.953439040707552 24.018736134675446 L 17.306200844808384 62.65576918623819 A 17.916697508022974 17.916697508022974 0 1 1 -17.306200844808384 62.65576918623819 L -8.765172356425198 30.780216918698923 L -4.901469051268926 31.815493099109005 L -6.4704761275630185 24.148145657226706 L -11.662949835292403 30.00375978339136 L -7.79924653013613 31.039035963801442 L -16.340275018519314 62.91458823134071 A 16.916697508022974 16.916697508022974 0 1 0 16.340275018519314 62.91458823134071 L 5.987513214418485 24.277555179777966 Z"/><text text-anchor="middle" pointer-events="none" font-size="8px" fill="#000000" x="0" y="94.20964923467838" font-family="sans-serif">same_com…</text></g></g><g class="layer nodes"><g class="node" aria-label="graph-node-11" transform="translate(177.07885881204936,185.79007963947714)"><circle class="outline" cx="0" cy="0" r="25" fill="#FFC454" stroke="#d7a013" stroke-width="2px"/><text class="caption" text-anchor="middle" pointer-events="none" x="0" y="5" font-size="10px" fill="#2A2C34" font-family="sans-serif"> Entity</text></g><g class="node" aria-label="graph-node-12" transform="translate(-582.8985902451193,301.70607474097494)"><circle class="outline" cx="0" cy="0" r="25" fill="#D9C8AE" stroke="#c0a378" stroke-width="2px"/><text class="caption" text-anchor="middle" pointer-events="none" x="0" y="5" font-size="10px" fill="#2A2C34" font-family="sans-serif"> Intermed…</text></g><g class="node" aria-label="graph-node-14" transform="translate(250.59606380256457,-407.00568294000095)"><circle class="outline" cx="0" cy="0" r="25" fill="#F16667" stroke="#eb2728" stroke-width="2px"/><text class="caption" text-anchor="middle" pointer-events="none" x="0" y="5" font-size="10px" fill="#FFFFFF" font-family="sans-serif"> </text></g><g class="node" aria-label="graph-node-13" transform="translate(-437.9257946900275,-332.614750075934)"><circle class="outline" cx="0" cy="0" r="25" fill="#ECB5C9" stroke="#da7298" stroke-width="2px"/><text class="caption" text-anchor="middle" pointer-events="none" x="0" y="5" font-size="10px" fill="#2A2C34" font-family="sans-serif"> Officer</text></g><g class="node" aria-label="graph-node-15" transform="translate(531.4797098667564,-159.38987161635134)"><circle class="outline" cx="0" cy="0" r="25" fill="#DA7194" stroke="#cc3c6c" stroke-width="2px"/><text class="caption" text-anchor="middle" pointer-events="none" x="0" y="5" font-size="10px" fill="#FFFFFF" font-family="sans-serif"> Other</text></g></g></svg>