<svg xmlns="http://www.w3.org/2000/svg" width="843.8204345703125" height="570.7040405273438" viewBox="-447.0717468261719 -247.69740295410156 843.8204345703125 570.7040405273438"><title>Neo4j Graph Visualization</title><desc>Created using Neo4j (http://www.neo4j.com/)</desc><g class="layer relationships"><g class="relationship" transform="translate(305.1984956231437 -50.675888246562124) rotate(508.0874746658179)"><path class="outline" fill="#A5ABB6" stroke="none" d="M 12.066987298107785,21.900635094610966 L 12.933012701892222,21.400635094610966 A 251.83656238315996 251.83656238315996 0 0 0 197.35030888223065,145.05667367921967 L 197.21657308101695,146.04769069999872 A 252.83656238315996 252.83656238315996 0 0 1 12.066987298107785,21.900635094610966 Z M 258.3195536763381,146.84185864512187 L 258.2116196018844,145.84770059150475 A 251.83656238315996 251.83656238315996 0 0 0 445.78044284636155,27.02644173776563 L 443.2222292872973,25.459424384249726 L 449.8631855977427,21.318446325535106 L 449.1913942584472,29.115798209120168 L 446.63318069938293,27.548780855604264 A 252.83656238315996 252.83656238315996 0 0 1 258.3195536763381,146.84185864512187"/><text text-anchor="middle" pointer-events="none" font-size="8px" fill="#000000" x="227.7504803567226" y="150.79760571531023" transform="rotate(180 227.7504803567226 147.79760571531023)" font-family="sans-serif">intermediary_of</text></g><g class="relationship" transform="translate(305.1984956231437 -50.675888246562124) rotate(230.224008333705)"><path class="outline" fill="#A5ABB6" stroke="none" d="M 25 0.5 L 55.619647662078336 0.5 L 55.619647662078336 -0.5 L 25 -0.5 Z M 130.10402266207834 0.5 L 160.72367032415667 0.5 L 160.72367032415667 3.5 L 167.72367032415667 0 L 160.72367032415667 -3.5 L 160.72367032415667 -0.5 L 130.10402266207834 -0.5 Z"/><text text-anchor="middle" pointer-events="none" font-size="8px" fill="#000000" x="92.86183516207834" y="3" transform="rotate(180 92.86183516207834 0)" font-family="sans-serif">registered_address</text></g><g class="relationship" transform="translate(-87.75540374373364 194.0355735823448) rotate(304.46703756033685)"><path class="outline" fill="#A5ABB6" stroke="none" d="M 25 0.5 L 197.49460862746565 0.5 L 197.49460862746565 -0.5 L 25 -0.5 Z M 271.97898362746565 0.5 L 444.4735922549313 0.5 L 444.4735922549313 3.5 L 451.4735922549313 0 L 444.4735922549313 -3.5 L 444.4735922549313 -0.5 L 271.97898362746565 -0.5 Z"/><text text-anchor="middle" pointer-events="none" font-size="8px" fill="#000000" x="234.73679612746565" y="3" font-family="sans-serif">registered_address</text></g><g class="relationship" transform="translate(-227.49503223699529 -208.10647834993017) rotate(430.8382625286975)"><path class="outline" fill="#A5ABB6" stroke="none" d="M 21.40063509461097,12.933012701892217 L 21.90063509461097,12.06698729810778 A 380.99076372431847 380.99076372431847 0 0 0 172.18949256175796,60.98260381150692 L 172.08396106802311,61.977019772677124 A 381.99076372431847 381.99076372431847 0 0 1 21.40063509461097,12.933012701892217 Z M 246.54510550500453,62.580584339180575 L 246.45570782372215,61.58458832785254 A 380.99076372431847 380.99076372431847 0 0 0 397.5177625230502,15.111651604597531 L 396.06007564563106,12.489601077357447 L 403.8788282328469,12.147390645159525 L 399.4613450262757,18.60771897425098 L 398.0036581488566,15.985668447010893 A 381.99076372431847 381.99076372431847 0 0 1 246.54510550500453,62.580584339180575"/><text text-anchor="middle" pointer-events="none" font-size="8px" fill="#000000" x="209.3038439140796" y="66.5975390211828" font-family="sans-serif">registered_address</text></g><g class="relationship" transform="translate(-227.49503223699529 -208.10647834993017) rotate(361.3030916415105)"><path class="outline" fill="#A5ABB6" stroke="none" d="M 25 0.5 L 164.0064095535413 0.5 L 164.0064095535413 -0.5 L 25 -0.5 Z M 238.4907845535413 0.5 L 377.4971941070826 0.5 L 377.4971941070826 3.5 L 384.4971941070826 0 L 377.4971941070826 -3.5 L 377.4971941070826 -0.5 L 238.4907845535413 -0.5 Z"/><text text-anchor="middle" pointer-events="none" font-size="8px" fill="#000000" x="201.2485970535413" y="3" font-family="sans-serif">registered_address</text></g><g class="relationship" transform="translate(-349.8433656268114 58.73967765160425) rotate(334.1580313003176)"><path class="outline" fill="#A5ABB6" stroke="none" d="M 25 0.5 L 254.6688049248936 0.5 L 254.6688049248936 -0.5 L 25 -0.5 Z M 329.1531799248936 0.5 L 558.8219848497872 0.5 L 558.8219848497872 3.5 L 565.8219848497872 0 L 558.8219848497872 -3.5 L 558.8219848497872 -0.5 L 329.1531799248936 -0.5 Z"/><text text-anchor="middle" pointer-events="none" font-size="8px" fill="#000000" x="291.9109924248936" y="3" font-family="sans-serif">registered_address</text></g><g class="relationship" transform="translate(-349.8433656268114 58.73967765160425) rotate(387.30383416988855)"><path class="outline" fill="#A5ABB6" stroke="none" d="M 17.324116139070416,18.03122292025696 L 18.031222920256962,17.324116139070412 A 182.10408139025785 182.10408139025785 0 0 0 106.97712696176556,66.25394605530641 L 106.75845461523012,67.22974439761936 A 183.10408139025785 183.10408139025785 0 0 1 17.324116139070416,18.03122292025696 Z M 180.91996890365152,68.45375891907614 L 180.7336174313549,67.47127577480705 A 182.10408139025785 182.10408139025785 0 0 0 271.2457817141266,21.50334980199918 L 269.1956212727298,19.313180364596775 L 276.69787047496504,17.08467034497364 L 273.9793289693224,24.423575718535716 L 271.9291685279256,22.233406281133313 A 183.10408139025785 183.10408139025785 0 0 1 180.91996890365152,68.45375891907614"/><text text-anchor="middle" pointer-events="none" font-size="8px" fill="#000000" x="143.7848361742483" y="74.13630059343356" font-family="sans-serif">registered_address</text></g><g class="relationship" transform="translate(305.1984956231437 -50.675888246562124) rotate(508.0874746658179)"><path class="outline" fill="#A5ABB6" stroke="none" d="M 21.40063509461097,12.933012701892217 L 21.90063509461097,12.06698729810778 A 418.25847646568855 418.25847646568855 0 0 0 190.77318684856425,66.1611704442011 L 190.6769385027589,67.15652779507053 A 419.25847646568855 419.25847646568855 0 0 1 21.40063509461097,12.933012701892217 Z M 265.1499083293286,67.71231537536659 L 265.0685264684548,66.71563238026698 A 418.25847646568855 418.25847646568855 0 0 0 434.72962709734156,15.147906819317894 L 433.2685706078868,12.527732410118748 L 441.086876800382,12.175470745456611 L 436.6777024166146,18.641472698250087 L 435.2166459271598,16.021298289050943 A 419.25847646568855 419.25847646568855 0 0 1 265.1499083293286,67.71231537536659"/><text text-anchor="middle" pointer-events="none" font-size="8px" fill="#000000" x="227.90478942297003" y="71.59133679609442" transform="rotate(180 227.90478942297003 68.59133679609442)" font-family="sans-serif">registered_address</text></g><g class="relationship" transform="translate(-87.75540374373364 194.0355735823448) rotate(317.8262611671748)"><path class="outline" fill="#A5ABB6" stroke="none" d="M 6.953439040707552 24.018736134675446 L 17.306200844808384 62.65576918623819 A 17.916697508022974 17.916697508022974 0 1 1 -17.306200844808384 62.65576918623819 L -8.765172356425198 30.780216918698923 L -4.901469051268926 31.815493099109005 L -6.4704761275630185 24.148145657226706 L -11.662949835292403 30.00375978339136 L -7.79924653013613 31.039035963801442 L -16.340275018519314 62.91458823134071 A 16.916697508022974 16.916697508022974 0 1 0 16.340275018519314 62.91458823134071 L 5.987513214418485 24.277555179777966 Z"/><text text-anchor="middle" pointer-events="none" font-size="8px" fill="#000000" x="0" y="94.20964923467838" font-family="sans-serif">registered…</text></g><g class="relationship" transform="translate(-87.75540374373364 194.0355735823448) rotate(328.0874746658179)"><path class="outline" fill="#A5ABB6" stroke="none" d="M 25 0.5 L 208.57997239685426 0.5 L 208.57997239685426 -0.5 L 25 -0.5 Z M 247.34169114685426 0.5 L 430.9216635437085 0.5 L 430.9216635437085 3.5 L 437.9216635437085 0 L 430.9216635437085 -3.5 L 430.9216635437085 -0.5 L 247.34169114685426 -0.5 Z"/><text text-anchor="middle" pointer-events="none" font-size="8px" fill="#000000" x="227.96083177185426" y="3" font-family="sans-serif">officer_of</text></g><g class="relationship" transform="translate(305.1984956231437 -50.675888246562124) rotate(196.4643540794334)"><path class="outline" fill="#A5ABB6" stroke="none" d="M 24.018736134675446,-6.953439040707552 L 24.277555179777966,-5.987513214418485 A 977.8964616483836 977.8964616483836 0 0 1 254.8556587671188,-39.04918305775425 L 254.83262961658107,-40.0489178516998 A 978.8964616483836 978.8964616483836 0 0 0 24.018736134675446,-6.953439040707552 Z M 293.61141964200357,-40.17387855469042 L 293.5948339900114,-39.17401610607669 A 977.8964616483836 977.8964616483836 0 0 1 524.3812225680782,-7.599046369628755 L 523.6234569497459,-4.69632501412916 L 531.280533333966,-6.314713486103221 L 525.3915767258546,-11.46934151029488 L 524.6338111075223,-8.566620154795286 A 978.8964616483836 978.8964616483836 0 0 0 293.61141964200357,-40.17387855469042"/><text text-anchor="middle" pointer-events="none" font-size="8px" fill="#000000" x="274.22301696940997" y="-36.80344739837926" transform="rotate(180 274.22301696940997 -39.80344739837926)" font-family="sans-serif">officer_of</text></g><g class="relationship" transform="translate(305.1984956231437 -50.675888246562124) rotate(508.0874746658179)"><path class="outline" fill="#A5ABB6" stroke="none" d="M 21.40063509461097,-12.933012701892217 L 21.90063509461097,-12.06698729810778 A 418.25847646568855 418.25847646568855 0 0 1 208.56159344883673,-67.4990789912739 L 208.50787480081678,-68.49763510229366 A 419.25847646568855 419.25847646568855 0 0 0 21.40063509461097,-12.933012701892217 Z M 247.3009420256699,-68.78714557858291 L 247.26213286709216,-67.78789893775269 A 418.25847646568855 418.25847646568855 0 0 1 434.72962709734156,-15.147906819317894 L 433.2685706078868,-12.527732410118748 L 441.086876800382,-12.175470745456611 L 436.6777024166146,-18.641472698250087 L 435.2166459271598,-16.021298289050943 A 419.25847646568855 419.25847646568855 0 0 0 247.3009420256699,-68.78714557858291"/><text text-anchor="middle" pointer-events="none" font-size="8px" fill="#000000" x="227.90478942297" y="-65.59133679609442" transform="rotate(180 227.90478942297 -68.59133679609442)" font-family="sans-serif">officer_of</text></g><g class="relationship" transform="translate(-87.75540374373364 194.0355735823448) rotate(397.56504766853163)"><path class="outline" fill="#A5ABB6" stroke="none" d="M 6.953439040707552 24.018736134675446 L 17.306200844808384 62.65576918623819 A 17.916697508022974 17.916697508022974 0 1 1 -17.306200844808384 62.65576918623819 L -8.765172356425198 30.780216918698923 L -4.901469051268926 31.815493099109005 L -6.4704761275630185 24.148145657226706 L -11.662949835292403 30.00375978339136 L -7.79924653013613 31.039035963801442 L -16.340275018519314 62.91458823134071 A 16.916697508022974 16.916697508022974 0 1 0 16.340275018519314 62.91458823134071 L 5.987513214418485 24.277555179777966 Z"/><text text-anchor="middle" pointer-events="none" font-size="8px" fill="#000000" x="0" y="94.20964923467838" font-family="sans-serif">officer_of</text></g><g class="relationship" transform="translate(305.1984956231437 -50.675888246562124) rotate(232.84516377774264)"><path class="outline" fill="#A5ABB6" stroke="none" d="M 6.953439040707552 24.018736134675446 L 17.306200844808384 62.65576918623819 A 17.916697508022974 17.916697508022974 0 1 1 -17.306200844808384 62.65576918623819 L -8.765172356425198 30.780216918698923 L -4.901469051268926 31.815493099109005 L -6.4704761275630185 24.148145657226706 L -11.662949835292403 30.00375978339136 L -7.79924653013613 31.039035963801442 L -16.340275018519314 62.91458823134071 A 16.916697508022974 16.916697508022974 0 1 0 16.340275018519314 62.91458823134071 L 5.987513214418485 24.277555179777966 Z"/><text text-anchor="middle" pointer-events="none" font-size="8px" fill="#000000" x="0" y="94.20964923467838" transform="rotate(180 0 91.20964923467838)" font-family="sans-serif">officer_of</text></g><g class="relationship" transform="translate(305.1984956231437 -50.675888246562124) rotate(530.5170902579287)"><path class="outline" fill="#A5ABB6" stroke="none" d="M 17.324116139070416,-18.03122292025696 L 18.031222920256962,-17.324116139070412 A 443.6769213251905 443.6769213251905 0 0 1 309.12670988398355,-146.69649850029305 L 309.075700981619,-147.69519669888933 A 444.6769213251905 444.6769213251905 0 0 0 17.324116139070416,-18.03122292025696 Z M 347.86767926967127,-147.98217920145788 L 347.8314518518498,-146.982835629808 A 443.6769213251905 443.6769213251905 0 0 1 640.8091624588307,-21.931418460863128 L 638.7194595807288,-19.77894502751897 L 646.1798842829841,-17.414190650849253 L 643.5954329629666,-24.80138303865534 L 641.5057300848647,-22.648909605311182 A 444.6769213251905 444.6769213251905 0 0 0 347.86767926967127,-147.98217920145788"/><text text-anchor="middle" pointer-events="none" font-size="8px" fill="#000000" x="328.472258029479" y="-144.76192329380916" transform="rotate(180 328.472258029479 -147.76192329380916)" font-family="sans-serif">officer_of</text></g><g class="relationship" transform="translate(-349.8433656268114 58.73967765160425) rotate(387.30383416988855)"><path class="outline" fill="#A5ABB6" stroke="none" d="M 24.018736134675446,6.953439040707552 L 24.277555179777966,5.987513214418485 A 473.3836280276262 473.3836280276262 0 0 0 124.60341099734731,21.59707443682288 L 124.55652546637069,22.595974705611013 A 474.3836280276262 474.3836280276262 0 0 1 24.018736134675446,6.953439040707552 Z M 163.34762654475037,22.82891014822826 L 163.31274049090297,21.82951885186486 A 473.3836280276262 473.3836280276262 0 0 0 263.81882133234427,7.425926904805777 L 263.077220478507,4.51903368805566 L 270.7251723137341,6.180007115310523 L 264.80762247079394,11.301784527139269 L 264.0660216169567,8.39489131038915 A 474.3836280276262 474.3836280276262 0 0 1 163.34762654475037,22.82891014822826"/><text text-anchor="middle" pointer-events="none" font-size="8px" fill="#000000" x="143.95269640907128" y="25.609125666601017" font-family="sans-serif">officer_of</text></g><g class="relationship" transform="translate(-87.75540374373364 194.0355735823448) rotate(207.30383416988855)"><path class="outline" fill="#A5ABB6" stroke="none" d="M 24.018736134675446,6.953439040707552 L 24.277555179777966,5.987513214418485 A 473.3836280276262 473.3836280276262 0 0 0 124.60341099734731,21.59707443682288 L 124.55652546637069,22.595974705611013 A 474.3836280276262 474.3836280276262 0 0 1 24.018736134675446,6.953439040707552 Z M 163.34762654475037,22.82891014822826 L 163.31274049090297,21.82951885186486 A 473.3836280276262 473.3836280276262 0 0 0 263.81882133234427,7.425926904805777 L 263.077220478507,4.51903368805566 L 270.7251723137341,6.180007115310523 L 264.80762247079394,11.301784527139269 L 264.0660216169567,8.39489131038915 A 474.3836280276262 474.3836280276262 0 0 1 163.34762654475037,22.82891014822826"/><text text-anchor="middle" pointer-events="none" font-size="8px" fill="#000000" x="143.95269640907128" y="25.609125666601017" transform="rotate(180 143.95269640907128 22.609125666601017)" font-family="sans-serif">officer_of</text></g><g class="relationship" transform="translate(-349.8433656268114 58.73967765160425) rotate(386.41300417848964)"><path class="outline" fill="#A5ABB6" stroke="none" d="M 6.953439040707552 24.018736134675446 L 17.306200844808384 62.65576918623819 A 17.916697508022974 17.916697508022974 0 1 1 -17.306200844808384 62.65576918623819 L -8.765172356425198 30.780216918698923 L -4.901469051268926 31.815493099109005 L -6.4704761275630185 24.148145657226706 L -11.662949835292403 30.00375978339136 L -7.79924653013613 31.039035963801442 L -16.340275018519314 62.91458823134071 A 16.916697508022974 16.916697508022974 0 1 0 16.340275018519314 62.91458823134071 L 5.987513214418485 24.277555179777966 Z"/><text text-anchor="middle" pointer-events="none" font-size="8px" fill="#000000" x="0" y="94.20964923467838" font-family="sans-serif">officer_of</text></g><g class="relationship" transform="translate(-349.8433656268114 58.73967765160425) rotate(294.6313441956918)"><path class="outline" fill="#A5ABB6" stroke="none" d="M 24.018736134675446,6.953439040707552 L 24.277555179777966,5.987513214418485 A 470.68245400894057 470.68245400894057 0 0 0 123.90762472048979,21.50220037431751 L 123.8604771933972,22.501088311320018 A 471.68245400894057 471.68245400894057 0 0 1 24.018736134675446,6.953439040707552 Z M 162.6516818056813,22.73510390900549 L 162.61658924883056,21.7357198424657 A 470.68245400894057 470.68245400894057 0 0 0 262.42659130433736,7.424194276116281 L 261.6851522395879,4.517259788849072 L 269.33301161875244,6.1786588729121075 L 263.4151767240033,11.300106925805892 L 262.67373765925385,8.393172438538684 A 471.68245400894057 471.68245400894057 0 0 1 162.6516818056813,22.73510390900549"/><text text-anchor="middle" pointer-events="none" font-size="8px" fill="#000000" x="143.2566890489255" y="25.51705517444401" font-family="sans-serif">officer_of</text></g><g class="relationship" transform="translate(-87.75540374373364 194.0355735823448) rotate(250.8382625286975)"><path class="outline" fill="#A5ABB6" stroke="none" d="M 25 0.5 L 189.9837652715904 0.5 L 189.9837652715904 -0.5 L 25 -0.5 Z M 228.7454840215904 0.5 L 393.7292492931808 0.5 L 393.7292492931808 3.5 L 400.7292492931808 0 L 393.7292492931808 -3.5 L 393.7292492931808 -0.5 L 228.7454840215904 -0.5 Z"/><text text-anchor="middle" pointer-events="none" font-size="8px" fill="#000000" x="209.3646246465904" y="3" transform="rotate(180 209.3646246465904 0)" font-family="sans-serif">officer_of</text></g><g class="relationship" transform="translate(-349.8433656268114 58.73967765160425) rotate(350.51709025792866)"><path class="outline" fill="#A5ABB6" stroke="none" d="M 24.018736134675446,6.953439040707552 L 24.277555179777966,5.987513214418485 A 1188.0139166099632 1188.0139166099632 0 0 0 309.17856730978616,46.25351019620393 L 309.1595611222156,47.25332956230659 A 1189.0139166099632 1189.0139166099632 0 0 1 24.018736134675446,6.953439040707552 Z M 347.93572671166646,47.358046073580454 L 347.9221208624494,46.35813863743101 A 1188.0139166099632 1188.0139166099632 0 0 0 633.0364556395224,7.6314897988506125 L 632.2756608320324,4.729560912593023 L 639.9344221753718,6.339956729083494 L 634.0508487161758,11.500728313860733 L 633.2900539086858,8.598799427603144 A 1189.0139166099632 1189.0139166099632 0 0 1 347.93572671166646,47.358046073580454"/><text text-anchor="middle" pointer-events="none" font-size="8px" fill="#000000" x="328.54856727377535" y="49.96377194364618" font-family="sans-serif">officer_of</text></g><g class="relationship" transform="translate(-227.49503223699529 -208.10647834993017) rotate(430.8382625286975)"><path class="outline" fill="#A5ABB6" stroke="none" d="M 21.40063509461097,-12.933012701892217 L 21.90063509461097,-12.06698729810778 A 380.99076372431847 380.99076372431847 0 0 1 187.895871670811,-62.32149683666563 L 187.83156526861254,-63.31942703795045 A 381.99076372431847 381.99076372431847 0 0 0 21.40063509461097,-12.933012701892217 Z M 230.77780946486592,-63.667539217225396 L 230.72968842568457,-62.66869770547885 A 380.99076372431847 380.99076372431847 0 0 1 397.5177625230502,-15.111651604597531 L 396.06007564563106,-12.489601077357447 L 403.8788282328469,-12.147390645159525 L 399.4613450262757,-18.60771897425098 L 398.0036581488566,-15.985668447010893 A 381.99076372431847 381.99076372431847 0 0 0 230.77780946486592,-63.667539217225396"/><text text-anchor="middle" pointer-events="none" font-size="8px" fill="#000000" x="209.30384391407966" y="-60.5975390211828" font-family="sans-serif">underlying</text></g><g class="relationship" transform="translate(305.1984956231437 -50.675888246562124) rotate(325.4663192217803)"><path class="outline" fill="#A5ABB6" stroke="none" d="M 6.953439040707552 24.018736134675446 L 17.306200844808384 62.65576918623819 A 17.916697508022974 17.916697508022974 0 1 1 -17.306200844808384 62.65576918623819 L -8.765172356425198 30.780216918698923 L -4.901469051268926 31.815493099109005 L -6.4704761275630185 24.148145657226706 L -11.662949835292403 30.00375978339136 L -7.79924653013613 31.039035963801442 L -16.340275018519314 62.91458823134071 A 16.916697508022974 16.916697508022974 0 1 0 16.340275018519314 62.91458823134071 L 5.987513214418485 24.277555179777966 Z"/><text text-anchor="middle" pointer-events="none" font-size="8px" fill="#000000" x="0" y="94.20964923467838" font-family="sans-serif">underlying</text></g><g class="relationship" transform="translate(-349.8433656268114 58.73967765160425) rotate(387.30383416988855)"><path class="outline" fill="#A5ABB6" stroke="none" d="M 17.324116139070416,-18.03122292025696 L 18.031222920256962,-17.324116139070412 A 182.10408139025785 182.10408139025785 0 0 1 122.46764862857574,-69.02846285203782 L 122.3340403923477,-70.01949707910168 A 183.10408139025785 183.10408139025785 0 0 0 17.324116139070416,-18.03122292025696 Z M 165.2608035106802,-70.72799099161307 L 165.15997260829155,-69.73308741381095 A 182.10408139025785 182.10408139025785 0 0 1 271.2457817141266,-21.50334980199918 L 269.1956212727298,-19.313180364596775 L 276.69787047496504,-17.08467034497364 L 273.9793289693224,-24.423575718535716 L 271.9291685279256,-22.233406281133313 A 183.10408139025785 183.10408139025785 0 0 0 165.2608035106802,-70.72799099161307"/><text text-anchor="middle" pointer-events="none" font-size="8px" fill="#000000" x="143.7848361742483" y="-68.13630059343356" font-family="sans-serif">underlying</text></g><g class="relationship" transform="translate(-227.49503223699529 -208.10647834993017) rotate(474.6313441956918)"><path class="outline" fill="#A5ABB6" stroke="none" d="M 24.018736134675446,6.953439040707552 L 24.277555179777966,5.987513214418485 A 470.68245400894057 470.68245400894057 0 0 0 121.83618451297382,21.399854017232315 L 121.7846360565713,22.398524511761195 A 471.68245400894057 471.68245400894057 0 0 1 24.018736134675446,6.953439040707552 Z M 164.72860928170826,22.657592505697323 L 164.68911349243206,21.658372768787842 A 470.68245400894057 470.68245400894057 0 0 0 262.42659130433736,7.424194276116281 L 261.6851522395879,4.517259788849072 L 269.33301161875244,6.1786588729121075 L 263.4151767240033,11.300106925805892 L 262.67373765925385,8.393172438538684 A 471.68245400894057 471.68245400894057 0 0 1 164.72860928170826,22.657592505697323"/><text text-anchor="middle" pointer-events="none" font-size="8px" fill="#000000" x="143.2566890489255" y="25.51705517444401" transform="rotate(180 143.2566890489255 22.51705517444401)" font-family="sans-serif">underlying</text></g><g class="relationship" transform="translate(-349.8433656268114 58.73967765160425) rotate(350.51709025792866)"><path class="outline" fill="#A5ABB6" stroke="none" d="M 24.018736134675446,-6.953439040707552 L 24.277555179777966,-5.987513214418485 A 1188.0139166099632 1188.0139166099632 0 0 1 307.1036792423998,-46.21225440086482 L 307.08292653651125,-47.212039040273794 A 1189.0139166099632 1189.0139166099632 0 0 0 24.018736134675446,-6.953439040707552 Z M 350.0125540198163,-47.327972133502726 L 349.99720149019527,-46.32808999053077 A 1188.0139166099632 1188.0139166099632 0 0 1 633.0364556395224,-7.6314897988506125 L 632.2756608320324,-4.729560912593023 L 639.9344221753718,-6.339956729083494 L 634.0508487161758,-11.500728313860733 L 633.2900539086858,-8.598799427603144 A 1189.0139166099632 1189.0139166099632 0 0 0 350.0125540198163,-47.327972133502726"/><text text-anchor="middle" pointer-events="none" font-size="8px" fill="#000000" x="328.54856727377484" y="-43.96377194364618" font-family="sans-serif">underlying</text></g><g class="relationship" transform="translate(305.1984956231437 -50.675888246562124) rotate(508.0874746658179)"><path class="outline" fill="#A5ABB6" stroke="none" d="M 12.066987298107785,-21.900635094610966 L 12.933012701892222,-21.400635094610966 A 251.83656238315996 251.83656238315996 0 0 1 206.38189325934695,-146.10982891630528 L 206.2840203379774,-147.10502783675412 A 252.83656238315996 252.83656238315996 0 0 0 12.066987298107785,-21.900635094610966 Z M 249.2276891690614,-147.66317549009864 L 249.15571454770884,-146.66576902637325 A 251.83656238315996 251.83656238315996 0 0 1 445.78044284636155,-27.02644173776563 L 443.2222292872973,-25.459424384249726 L 449.8631855977427,-21.318446325535106 L 449.1913942584472,-29.115798209120168 L 446.63318069938293,-27.548780855604264 A 252.83656238315996 252.83656238315996 0 0 0 249.2276891690614,-147.66317549009864"/><text text-anchor="middle" pointer-events="none" font-size="8px" fill="#000000" x="227.75048035672262" y="-144.79760571531023" transform="rotate(180 227.75048035672262 -147.79760571531023)" font-family="sans-serif">underlying</text></g><g class="relationship" transform="translate(-227.49503223699529 -208.10647834993017) rotate(376.4643540794334)"><path class="outline" fill="#A5ABB6" stroke="none" d="M 24.018736134675446,-6.953439040707552 L 24.277555179777966,-5.987513214418485 A 977.8964616483836 977.8964616483836 0 0 1 252.7811504919243,-38.999193929704006 L 252.75599994269402,-39.998877604610016 A 978.8964616483836 978.8964616483836 0 0 0 24.018736134675446,-6.953439040707552 Z M 295.6883286853709,-40.137222663266925 L 295.66962134929395,-39.1373976607905 A 977.8964616483836 977.8964616483836 0 0 1 524.3812225680782,-7.599046369628755 L 523.6234569497459,-4.69632501412916 L 531.280533333966,-6.314713486103221 L 525.3915767258546,-11.46934151029488 L 524.6338111075223,-8.566620154795286 A 978.8964616483836 978.8964616483836 0 0 0 295.6883286853709,-40.137222663266925"/><text text-anchor="middle" pointer-events="none" font-size="8px" fill="#000000" x="274.22301696940997" y="-36.80344739837926" font-family="sans-serif">underlying</text></g><g class="relationship" transform="translate(-349.8433656268114 58.73967765160425) rotate(475.52217418709074)"><path class="outline" fill="#A5ABB6" stroke="none" d="M 6.953439040707552 24.018736134675446 L 17.306200844808384 62.65576918623819 A 17.916697508022974 17.916697508022974 0 1 1 -17.306200844808384 62.65576918623819 L -8.765172356425198 30.780216918698923 L -4.901469051268926 31.815493099109005 L -6.4704761275630185 24.148145657226706 L -11.662949835292403 30.00375978339136 L -7.79924653013613 31.039035963801442 L -16.340275018519314 62.91458823134071 A 16.916697508022974 16.916697508022974 0 1 0 16.340275018519314 62.91458823134071 L 5.987513214418485 24.277555179777966 Z"/><text text-anchor="middle" pointer-events="none" font-size="8px" fill="#000000" x="0" y="94.20964923467838" transform="rotate(180 0 91.20964923467838)" font-family="sans-serif">underlying</text></g><g class="relationship" transform="translate(305.1984956231437 -50.675888246562124) rotate(530.5170902579287)"><path class="outline" fill="#A5ABB6" stroke="none" d="M 17.324116139070416,18.03122292025696 L 18.031222920256962,17.324116139070412 A 443.6769213251905 443.6769213251905 0 0 0 307.05582959929586,146.5858744087618 L 307.00015315578787,147.58432327256918 A 444.6769213251905 444.6769213251905 0 0 1 17.324116139070416,18.03122292025696 Z M 349.94464030794603,147.90202597653894 L 349.90374217091545,146.902862655361 A 443.6769213251905 443.6769213251905 0 0 0 640.8091624588307,21.931418460863128 L 638.7194595807288,19.77894502751897 L 646.1798842829841,17.414190650849253 L 643.5954329629666,24.80138303865534 L 641.5057300848647,22.648909605311182 A 444.6769213251905 444.6769213251905 0 0 1 349.94464030794603,147.90202597653894"/><text text-anchor="middle" pointer-events="none" font-size="8px" fill="#000000" x="328.47225802947895" y="150.76192329380916" transform="rotate(180 328.47225802947895 147.76192329380916)" font-family="sans-serif">underlying</text></g></g><g class="layer nodes"><g class="node" aria-label="graph-node-11" transform="translate(-87.75540374373364,194.0355735823448)"><circle class="outline" cx="0" cy="0" r="25" fill="#FFC454" stroke="#d7a013" stroke-width="2px"/><text class="caption" text-anchor="middle" pointer-events="none" x="0" y="5" font-size="10px" fill="#2A2C34" font-family="sans-serif"> Entity</text></g><g class="node" aria-label="graph-node-12" transform="translate(305.1984956231437,-50.675888246562124)"><circle class="outline" cx="0" cy="0" r="25" fill="#D9C8AE" stroke="#c0a378" stroke-width="2px"/><text class="caption" text-anchor="middle" pointer-events="none" x="0" y="5" font-size="10px" fill="#2A2C34" font-family="sans-serif"> Intermed…</text></g><g class="node" aria-label="graph-node-13" transform="translate(181.8962592102786,-198.79398841936396)"><circle class="outline" cx="0" cy="0" r="25" fill="#F16667" stroke="#eb2728" stroke-width="2px"/><text class="caption" text-anchor="middle" pointer-events="none" x="0" y="5" font-size="10px" fill="#FFFFFF" font-family="sans-serif"> </text></g><g class="node" aria-label="graph-node-14" transform="translate(-227.49503223699529,-208.10647834993017)"><circle class="outline" cx="0" cy="0" r="25" fill="#DA7194" stroke="#cc3c6c" stroke-width="2px"/><text class="caption" text-anchor="middle" pointer-events="none" x="0" y="5" font-size="10px" fill="#FFFFFF" font-family="sans-serif"> Other</text></g><g class="node" aria-label="graph-node-15" transform="translate(-349.8433656268114,58.73967765160425)"><circle class="outline" cx="0" cy="0" r="25" fill="#ECB5C9" stroke="#da7298" stroke-width="2px"/><text class="caption" text-anchor="middle" pointer-events="none" x="0" y="5" font-size="10px" fill="#2A2C34" font-family="sans-serif"> Officer</text></g></g></svg>