<svg xmlns="http://www.w3.org/2000/svg" width="351.02716064453125" height="63.19550323486328" viewBox="-259.1557312011719 -32.80842590332031 351.02716064453125 63.19550323486328"><title>Neo4j Graph Visualization</title><desc>Created using Neo4j (http://www.neo4j.com/)</desc><g class="layer relationships"><g class="relationship" transform="translate(-230.1557298641635 -3.8084259190362815) rotate(360.73358575964096)"><path class="outline" fill="#A5ABB6" stroke="none" d="M 25 0.5 L 40.91763859614048 0.5 L 40.91763859614048 -0.5 L 25 -0.5 Z M 102.05435734614048 0.5 L 117.97199594228096 0.5 L 117.97199594228096 3.5 L 124.97199594228096 0 L 117.97199594228096 -3.5 L 117.97199594228096 -0.5 L 102.05435734614048 -0.5 Z"/><text text-anchor="middle" pointer-events="none" font-size="8px" fill="#000000" x="71.48599797114048" y="3" font-family="sans-serif">intermediary_of</text></g><g class="relationship" transform="translate(62.87144779116892 1.387078839345714) rotate(181.31150287254513)"><path class="outline" fill="#A5ABB6" stroke="none" d="M 25 0.5 L 48.67162188656263 0.5 L 48.67162188656263 -0.5 L 25 -0.5 Z M 87.43334063656263 0.5 L 111.10496252312527 0.5 L 111.10496252312527 3.5 L 118.10496252312527 0 L 111.10496252312527 -3.5 L 111.10496252312527 -0.5 L 87.43334063656263 -0.5 Z"/><text text-anchor="middle" pointer-events="none" font-size="8px" fill="#000000" x="68.05248126156263" y="3" transform="rotate(180 68.05248126156263 0)" font-family="sans-serif">officer_of</text></g></g><g class="layer nodes"><g class="node" aria-label="graph-node414422" transform="translate(-230.1557298641635,-3.8084259190362815)"><circle class="outline" cx="0" cy="0" r="25" fill="#D9C8AE" stroke="#c0a378" stroke-width="2px"/><text class="caption" text-anchor="middle" pointer-events="none" x="0" y="0" font-size="10px" fill="#2A2C34" font-family="sans-serif"> Wellex</text><text class="caption" text-anchor="middle" pointer-events="none" x="0" y="10" font-size="10px" fill="#2A2C34" font-family="sans-serif"> Consu…</text></g><g class="node" aria-label="graph-node301211" transform="translate(62.87144779116892,1.387078839345714)"><circle class="outline" cx="0" cy="0" r="25" fill="#D9C8AE" stroke="#c0a378" stroke-width="2px"/><text class="caption" text-anchor="middle" pointer-events="none" x="0" y="0" font-size="10px" fill="#2A2C34" font-family="sans-serif"> Portcullis</text><text class="caption" text-anchor="middle" pointer-events="none" x="0" y="10" font-size="10px" fill="#2A2C34" font-family="sans-serif"> TrustN…</text></g><g class="node" aria-label="graph-node1317480" transform="translate(-80.19602615428404,-1.888313902331246)"><circle class="outline" cx="0" cy="0" r="25" fill="#FFC454" stroke="#d7a013" stroke-width="2px"/><text class="caption" text-anchor="middle" pointer-events="none" x="0" y="-10" font-size="10px" fill="#2A2C34" font-family="sans-serif"> ANGEL</text><text class="caption" text-anchor="middle" pointer-events="none" x="0" y="0" font-size="10px" fill="#2A2C34" font-family="sans-serif"> WORLD</text><text class="caption" text-anchor="middle" pointer-events="none" x="0" y="10" font-size="10px" fill="#2A2C34" font-family="sans-serif"> GROUP</text><text class="caption" text-anchor="middle" pointer-events="none" x="0" y="20" font-size="10px" fill="#2A2C34" font-family="sans-serif">L…</text></g></g></svg>